<svg width="1200" height="1954" viewBox="0 0 1200 1954" fill="none" xmlns="http://www.w3.org/2000/svg">
<path opacity="0.1" d="M1200 54.4983L1200 485.499C1200 485.499 947.501 645.5 618 645.5C288.499 645.5 1.39877e-05 485.499 1.39877e-05 485.499L0.000906072 55.4982C119.334 37.1649 405.2 -0.0018395 602 -0.0018223C798.8 -0.00180509 1081.67 36.165 1200 54.4983Z" fill="#C0E57B"/>
<path opacity="0.1" d="M1200 965.498L1200 1663C1200 1663 947.501 1823 618 1823C288.499 1823 1.39877e-05 1663 1.39877e-05 1663L7.48779e-05 966.497C119.333 948.164 405.199 910.997 601.999 910.997C798.799 910.997 1081.67 947.164 1200 965.498Z" fill="#C0E57B"/>
<path opacity="0.2" d="M1200 1144.5L1200 1954L0 1954L5.16668e-05 1363C119.333 1344.67 243.5 1174.5 601.999 1202C979.26 1230.94 1081.67 1126.17 1200 1144.5Z" fill="url(#paint0_linear)"/>
<defs>
<linearGradient id="paint0_linear" x1="-9.8133e-06" y1="1548.17" x2="1200" y2="1548.17" gradientUnits="userSpaceOnUse">
<stop stop-color="#91E8B3"/>
<stop offset="1" stop-color="#C0E57B"/>
<stop offset="1" stop-color="#C0E57B"/>
</linearGradient>
</defs>
</svg>
