<svg width="1200" height="1300" viewBox="0 0 1200 1300" fill="none" xmlns="http://www.w3.org/2000/svg">
<path opacity="0.3" d="M497.501 1300L-1 1300L-0.999982 1091.98L365.875 1091.98C380.5 1091.98 395.71 1086.59 395.71 1069.43C395.71 1052.26 380.5 1047.6 365.875 1046.87L191.252 1046.87C176.042 1046 145.621 1032.33 145.621 996.949C145.621 961.564 176.042 949.944 191.252 947.025L629.127 947.025C644.337 946.587 667.737 951.798 667.737 973.52C667.737 995.242 644.337 1000.01 629.127 1000.01L541.376 1000.01C526.751 999.577 497.501 1004.92 497.501 1029.79C497.501 1054.67 526.751 1060.89 541.376 1060.89L674.757 1060.89C688.505 1059.14 716 1064.65 716 1093.73C716 1122.81 688.505 1127.16 674.757 1126.58L409.751 1126.58C395.125 1125.99 365.875 1133.72 365.875 1166.65C365.875 1199.58 395.125 1206.87 409.751 1206.72L497.501 1206.72C512.126 1207.16 541.376 1217.62 541.376 1253.36C541.376 1289.1 512.126 1299.12 497.501 1300Z" fill="url(#paint0_linear)"/>
<path opacity="0.2" d="M0.000919469 809.5L0 0L1200 0L1200 591C1080.67 609.333 956.5 779.5 598.001 752.002C220.74 723.065 118.334 827.833 0.000919469 809.5Z" fill="url(#paint1_linear)"/>
<defs>
<linearGradient id="paint0_linear" x1="-1.00001" y1="1123.5" x2="716" y2="1123.5" gradientUnits="userSpaceOnUse">
<stop stop-color="#91E8B3"/>
<stop offset="1" stop-color="#C0E57B"/>
<stop offset="1" stop-color="#C0E57B"/>
</linearGradient>
<linearGradient id="paint1_linear" x1="1200" y1="405.834" x2="4.52925e-05" y2="405.834" gradientUnits="userSpaceOnUse">
<stop stop-color="#91E8B3"/>
<stop offset="1" stop-color="#C0E57B"/>
<stop offset="1" stop-color="#C0E57B"/>
</linearGradient>
</defs>
</svg>
