<svg width="68" height="68" viewBox="0 0 68 68" fill="none" xmlns="http://www.w3.org/2000/svg">
<ellipse cx="38.1426" cy="38.2715" rx="1.62304" ry="1.62304" fill="#1D1D38"/>
<path d="M25.5 26C25.5 24.067 27.067 22.5 29 22.5H38.8261C40.7591 22.5 42.3261 24.067 42.3261 26V40C42.3261 41.933 40.7591 43.5 38.8261 43.5H25.5V26Z" stroke="#1D1D38" stroke-width="3"/>
<line x1="30.7148" y1="27.8828" x2="37.1061" y2="27.8828" stroke="#1D1D38" stroke-width="3" stroke-linecap="round"/>
<line x1="30.7148" y1="33.1016" x2="37.1061" y2="33.1016" stroke="#1D1D38" stroke-width="3" stroke-linecap="round"/>
<line x1="30.7148" y1="38.3203" x2="33.9757" y2="38.3203" stroke="#1D1D38" stroke-width="3" stroke-linecap="round"/>
<path d="M46.444 55.5551C34.5394 62.4282 19.3171 58.3494 12.444 46.4449C5.57086 34.5403 9.64967 19.318 21.5542 12.4449C33.4588 5.57176 48.6811 9.65056 55.5542 21.5551" stroke="url(#paint0_linear)" stroke-width="3.90625" stroke-linecap="round" stroke-linejoin="round"/>
<path d="M51.5535 44.1415C45.9549 53.8387 33.5551 57.1612 23.8579 51.5625C14.1608 45.9638 10.8383 33.5641 16.4369 23.8669C22.0356 14.1697 34.4353 10.8472 44.1325 16.4459" stroke="url(#paint1_linear)" stroke-width="0.78125" stroke-linecap="round" stroke-linejoin="round"/>
<circle cx="51.0871" cy="44.6838" r="6.28267" transform="rotate(60 51.0871 44.6838)" fill="url(#paint2_linear)"/>
<circle cx="46.4856" cy="18.2309" r="0.861028" transform="rotate(60 46.4856 18.2309)" fill="url(#paint3_linear)"/>
<path d="M17.8617 62.132C17.0624 62.132 16.3401 61.9597 15.6947 61.615C15.0567 61.2703 14.5544 60.7973 14.1877 60.196C13.8284 59.5873 13.6487 58.9053 13.6487 58.15C13.6487 57.3947 13.8284 56.7163 14.1877 56.115C14.5544 55.5063 15.0567 55.0297 15.6947 54.685C16.3401 54.3403 17.0624 54.168 17.8617 54.168C18.6611 54.168 19.3797 54.3403 20.0177 54.685C20.6557 55.0297 21.1581 55.5063 21.5247 56.115C21.8914 56.7163 22.0747 57.3947 22.0747 58.15C22.0747 58.9053 21.8914 59.5873 21.5247 60.196C21.1581 60.7973 20.6557 61.2703 20.0177 61.615C19.3797 61.9597 18.6611 62.132 17.8617 62.132ZM17.8617 60.614C18.3164 60.614 18.7271 60.5113 19.0937 60.306C19.4604 60.0933 19.7464 59.8 19.9517 59.426C20.1644 59.052 20.2707 58.6267 20.2707 58.15C20.2707 57.6733 20.1644 57.248 19.9517 56.874C19.7464 56.5 19.4604 56.2103 19.0937 56.005C18.7271 55.7923 18.3164 55.686 17.8617 55.686C17.4071 55.686 16.9964 55.7923 16.6297 56.005C16.2631 56.2103 15.9734 56.5 15.7607 56.874C15.5554 57.248 15.4527 57.6733 15.4527 58.15C15.4527 58.6267 15.5554 59.052 15.7607 59.426C15.9734 59.8 16.2631 60.0933 16.6297 60.306C16.9964 60.5113 17.4071 60.614 17.8617 60.614ZM28.32 62L26.835 59.855H26.747H25.196V62H23.414V54.3H26.747C27.429 54.3 28.0193 54.4137 28.518 54.641C29.024 54.8683 29.4126 55.191 29.684 55.609C29.9553 56.027 30.091 56.522 30.091 57.094C30.091 57.666 29.9516 58.161 29.673 58.579C29.4016 58.9897 29.013 59.305 28.507 59.525L30.234 62H28.32ZM28.287 57.094C28.287 56.6613 28.1476 56.3313 27.869 56.104C27.5903 55.8693 27.1833 55.752 26.648 55.752H25.196V58.436H26.648C27.1833 58.436 27.5903 58.3187 27.869 58.084C28.1476 57.8493 28.287 57.5193 28.287 57.094ZM31.5028 54.3H35.0008C35.8368 54.3 36.5738 54.4613 37.2118 54.784C37.8572 55.0993 38.3558 55.5467 38.7078 56.126C39.0672 56.7053 39.2468 57.38 39.2468 58.15C39.2468 58.92 39.0672 59.5947 38.7078 60.174C38.3558 60.7533 37.8572 61.2043 37.2118 61.527C36.5738 61.8423 35.8368 62 35.0008 62H31.5028V54.3ZM34.9128 60.537C35.6828 60.537 36.2952 60.3243 36.7498 59.899C37.2118 59.4663 37.4428 58.8833 37.4428 58.15C37.4428 57.4167 37.2118 56.8373 36.7498 56.412C36.2952 55.9793 35.6828 55.763 34.9128 55.763H33.2848V60.537H34.9128ZM40.5907 54.3H42.3727V62H40.5907V54.3ZM51.2621 54.3V62H49.7991L45.9601 57.325V62H44.2001V54.3H45.6741L49.5021 58.975V54.3H51.2621ZM53.0839 54.3H54.8659V62H53.0839V54.3Z" fill="#1D1D38"/>
<defs>
<linearGradient id="paint0_linear" x1="46.444" y1="55.5551" x2="21.5542" y2="12.4449" gradientUnits="userSpaceOnUse">
<stop stop-color="#91E8B3"/>
<stop offset="1" stop-color="#C0E57B"/>
<stop offset="1" stop-color="#C0E57B"/>
</linearGradient>
<linearGradient id="paint1_linear" x1="51.5535" y1="44.1415" x2="16.4369" y2="23.8669" gradientUnits="userSpaceOnUse">
<stop stop-color="#91E8B3"/>
<stop offset="1" stop-color="#C0E57B"/>
<stop offset="1" stop-color="#C0E57B"/>
</linearGradient>
<linearGradient id="paint2_linear" x1="57.3698" y1="44.6838" x2="44.8044" y2="44.6838" gradientUnits="userSpaceOnUse">
<stop stop-color="#91E8B3"/>
<stop offset="1" stop-color="#C0E57B"/>
<stop offset="1" stop-color="#C0E57B"/>
</linearGradient>
<linearGradient id="paint3_linear" x1="47.3467" y1="18.2309" x2="45.6246" y2="18.2309" gradientUnits="userSpaceOnUse">
<stop stop-color="#91E8B3"/>
<stop offset="1" stop-color="#C0E57B"/>
<stop offset="1" stop-color="#C0E57B"/>
</linearGradient>
</defs>
</svg>
