<svg width="100" height="38" viewBox="0 0 100 38" fill="none" xmlns="http://www.w3.org/2000/svg">
<path d="M0 19C0 8.50659 8.50659 0 19 0H81C91.4934 0 100 8.50659 100 19V19C100 29.4934 91.4934 38 81 38H0V19Z" fill="#C0E57B"/>
<path d="M44.6174 25.9157H38.4734C37.97 25.9157 37.9582 25.9157 38.0347 25.4064C38.441 22.7529 38.8522 20.1073 39.2683 17.4695C39.442 16.3832 39.5273 15.2704 39.9248 14.2312C41.4379 10.2569 44.2788 7.85463 48.4798 7.09509C48.908 7.0257 49.3415 6.99418 49.7752 7.00088C53.7868 7.00088 57.8004 7.00088 61.8159 7.00088C62.337 7.00088 62.3605 7.03327 62.2281 7.54551C61.9596 8.48756 61.3925 9.31695 60.612 9.90892C59.8316 10.5009 58.88 10.8234 57.9005 10.828C55.0743 10.828 52.2275 10.828 49.3925 10.828C48.51 10.8307 47.6377 11.0171 46.8312 11.3756C45.3181 12.0468 44.4437 13.2715 43.8873 14.7641C43.3309 16.2566 43.1366 17.7433 42.9452 19.2712C42.8393 20.0985 42.7539 20.9287 42.6508 21.753C42.6155 21.9973 42.6508 22.0915 42.9217 22.1004C44.85 22.171 46.7783 22.2976 48.7065 22.2211C50.2168 22.1622 51.7064 21.9532 53.0959 21.2937C53.8365 20.9593 54.4976 20.4714 55.0355 19.8624C55.5735 19.2534 55.976 18.5371 56.2165 17.761C56.4939 16.7844 56.9812 15.8801 57.6443 15.1114C58.0154 14.67 58.478 14.3145 59 14.0695C59.5221 13.8245 60.0911 13.6958 60.6678 13.6925C60.8473 13.6925 60.9798 13.7219 60.9416 13.9427C60.6766 15.4794 60.6472 17.0721 60.1143 18.547C58.5776 22.7804 55.563 25.2533 51.0764 25.8951C50.7957 25.9236 50.5133 25.9315 50.2315 25.9186H44.6174V25.9157Z" fill="white"/>
<path d="M41.3585 31C41.1172 31.002 40.8779 30.9561 40.6544 30.8651C40.4309 30.7741 40.2276 30.6398 40.0563 30.4698C39.885 30.2998 39.749 30.0976 39.6562 29.8749C39.5634 29.6521 39.5156 29.4132 39.5156 29.1718C39.516 28.9075 39.5685 28.6459 39.6701 28.4019C39.7717 28.1579 39.9204 27.9363 40.1077 27.7499C40.295 27.5634 40.5172 27.4157 40.7616 27.3152C41.0061 27.2146 41.2679 27.1633 41.5322 27.1641C42.0193 27.1663 42.486 27.3599 42.8318 27.7029C43.1776 28.0459 43.3748 28.5111 43.381 28.9981C43.381 29.2628 43.3286 29.5248 43.2267 29.769C43.1248 30.0133 42.9755 30.2349 42.7874 30.421C42.5993 30.6072 42.3762 30.7542 42.1309 30.8536C41.8857 30.953 41.6232 31.0027 41.3585 31V31Z" fill="white"/>
<path d="M52.6223 31C52.3783 31.0004 52.1367 30.9527 51.9112 30.8597C51.6857 30.7667 51.4807 30.6302 51.3079 30.458C51.1351 30.2858 50.998 30.0812 50.9042 29.856C50.8105 29.6308 50.7621 29.3893 50.7617 29.1453C50.7755 28.6171 50.9943 28.1149 51.3717 27.7451C51.7492 27.3753 52.2558 27.1669 52.7842 27.1641C53.2772 27.1664 53.7492 27.3637 54.0972 27.7128C54.4453 28.0619 54.6411 28.5346 54.6418 29.0276C54.6318 29.5557 54.4143 30.0587 54.0364 30.4278C53.6585 30.7969 53.1505 31.0024 52.6223 31V31Z" fill="white"/>
</svg>
