<svg width="141" height="141" viewBox="0 0 141 141" fill="none" xmlns="http://www.w3.org/2000/svg">
<g filter="url(#filter0_dd_3682_16211)">
<rect x="15" y="15" width="81" height="81" rx="10" fill="white"/>
</g>
<path d="M38.854 74.996C38.378 76.074 37.51 77.572 36.81 78.496L37.706 78.902C38.406 78.02 39.302 76.62 39.974 75.444L38.854 74.996ZM32.092 78.342C31.756 77.446 30.902 76.102 30.118 75.122L29.18 75.514C29.978 76.536 30.776 77.922 31.084 78.79L32.092 78.342ZM40.618 80.68V79.658H35.018V74.31H33.94V79.658H28.368V80.68H33.114C31.924 82.64 29.894 84.572 28.06 85.566C28.284 85.79 28.634 86.168 28.802 86.434C30.664 85.3 32.638 83.298 33.94 81.17V87.078H35.018V81.142C36.348 83.2 38.364 85.202 40.198 86.308C40.38 86.028 40.73 85.622 40.982 85.412C39.148 84.46 37.104 82.57 35.858 80.68H40.618ZM52.952 85.37H50.852V78.93H52.952V85.37ZM44.006 78.93H45.994V85.37H44.006V78.93ZM49.9 80.47H46.946V78.93H49.9V80.47ZM46.946 83.746H49.9V85.37H46.946V83.746ZM49.9 82.892H46.946V81.324H49.9V82.892ZM54.674 76.214V75.22H42.368V76.214H47.73C47.618 76.788 47.478 77.432 47.324 77.964H42.998V87.078H44.006V86.336H52.952V87.078H54.002V77.964H48.388C48.57 77.432 48.766 76.802 48.934 76.214H54.674ZM63.046 85.594V82.15H67.442V81.156H63.046V78.09H68.016V77.068H63.494L64.152 76.592C63.606 75.934 62.486 74.982 61.59 74.338L60.75 74.926C61.59 75.542 62.584 76.424 63.13 77.068H56.984V78.09H61.94V81.156H57.628V82.15H61.94V85.594H56.34V86.616H68.716V85.594H63.046ZM80.364 83.018C79.65 83.508 78.796 84.012 78.068 84.376C77.55 83.984 77.13 83.536 76.794 83.018H80.364ZM73.56 80.932H79.454V82.164H73.56V80.932ZM73.56 78.958H79.454V80.134H73.56V78.958ZM76.99 78.104V76.718H75.94V78.104H73.056C74.442 77.194 75.674 76.144 76.444 75.206C77.298 76.2 78.628 77.236 80.014 78.104H76.99ZM81.246 82.388C81.022 82.556 80.756 82.752 80.476 82.948V78.384C81.106 78.748 81.736 79.084 82.338 79.35C82.52 79.07 82.772 78.692 83.01 78.44C80.84 77.628 78.418 76.018 76.892 74.268H75.87C74.75 75.822 72.412 77.572 70.046 78.594C70.27 78.818 70.536 79.196 70.662 79.434C71.292 79.14 71.936 78.804 72.538 78.426V85.832C71.95 85.888 71.418 85.93 70.956 85.972L71.11 86.938C72.706 86.798 74.988 86.574 77.172 86.336L77.158 85.412L73.56 85.748V83.018H75.744C76.934 85.244 79.16 86.546 82.17 87.064C82.31 86.798 82.576 86.378 82.8 86.168C81.26 85.944 79.916 85.524 78.838 84.894C79.888 84.362 81.092 83.662 82.03 82.99L81.246 82.388Z" fill="#1D1D38"/>
<g clip-path="url(#clip0_3682_16211)">
<path d="M64.2349 38.4878C60.6384 35.8721 58.7705 32.8689 57.8831 31.0773C57.5561 30.3989 55.8747 30.956 54.8475 31.392C54.3102 31.61 53.7033 31.61 53.1661 31.392C52.1152 30.956 50.4575 30.3989 50.1304 31.0773C49.2661 32.8933 47.3982 35.8966 43.7786 38.4878C35.909 44.1796 29.3235 64.0148 54.0068 64.0148C78.6895 64.0148 72.1045 44.1796 64.2349 38.4878Z" fill="#FCFBE2"/>
<path d="M36.8841 54.0091C36.8841 54.0091 37.1645 64.6899 54.0007 64.6899C70.8374 64.6899 71.1178 54.0091 71.1178 54.0091C71.1178 54.0091 66.6812 61.735 54.0007 61.735C41.3213 61.735 36.8841 54.0091 36.8841 54.0091Z" fill="#EDE6AB"/>
<path d="M43.7972 44.686C43.7039 44.686 43.6107 44.6615 43.5168 44.6376C43.0965 44.468 42.9099 44.0081 43.0498 43.5716C44.5677 39.4301 49.4949 36.8144 49.7051 36.7176C50.1024 36.5241 50.5693 36.6693 50.7559 37.0808C50.943 37.4922 50.8026 37.9766 50.4058 38.1945C50.3592 38.219 45.8287 40.5923 44.5446 44.1527C44.4277 44.4924 44.1243 44.686 43.7972 44.686ZM49.5651 45.5823C49.4718 45.5823 49.4016 45.5579 49.3083 45.5339C48.888 45.3888 48.6778 44.9284 48.7947 44.4924C49.8455 41.2228 51.2235 39.5519 51.2701 39.479C51.5505 39.1398 52.0641 39.0915 52.3912 39.4062C52.7182 39.697 52.7649 40.2297 52.4614 40.5689C52.4378 40.5934 51.2235 42.0947 50.2895 45.0252C50.1957 45.3643 49.8922 45.5823 49.5651 45.5823ZM64.1366 45.1219C63.7865 45.1219 63.4825 44.88 63.3662 44.5164C62.1754 40.133 58.299 38.1951 58.2518 38.1706C57.8551 37.9771 57.6916 37.4928 57.8781 37.0808C58.0647 36.6687 58.5322 36.4997 58.929 36.6932C59.1156 36.7899 63.4825 38.9458 64.884 44.0799C65.0009 44.5158 64.7671 44.9762 64.3468 45.0969C64.2771 45.1219 64.2069 45.1219 64.1366 45.1219ZM58.8362 45.5823C58.4861 45.5823 58.1821 45.3399 58.0653 45.0012C57.2246 42.0224 55.9169 40.4482 55.8939 40.4238C55.6134 40.0846 55.637 39.5763 55.9636 39.2611C56.2906 38.9702 56.7806 38.9947 57.0846 39.3333C57.1549 39.4062 58.6491 41.1984 59.5831 44.5408C59.7 44.9768 59.4662 45.4366 59.0464 45.5579C58.9762 45.5579 58.9059 45.5823 58.8362 45.5823Z" fill="#1D1D38"/>
<path d="M57.1799 30.7369C57.53 30.7369 57.7868 30.8337 57.9037 31.0516C58.7679 32.8677 60.6359 35.8716 64.2554 38.4628C72.125 44.1546 78.7336 63.9897 54.0273 63.9897C29.321 63.9897 35.9065 44.1785 43.7761 38.4873C47.3721 35.8716 49.24 32.8683 50.1279 31.0767C50.2448 30.8587 50.5016 30.7619 50.8517 30.7619C51.5288 30.7619 52.4864 31.1011 53.1871 31.3914C53.4676 31.5126 53.7474 31.561 54.0278 31.561C54.3082 31.561 54.5881 31.5126 54.8685 31.3914C55.5221 31.0761 56.5027 30.7369 57.1799 30.7369ZM57.1799 28C56.3156 28 55.2883 28.2424 54.0037 28.7751C52.7196 28.2424 51.6924 28 50.8281 28C48.8433 28 48.0256 29.2834 47.7452 29.8406C47.0681 31.2212 45.48 33.9092 42.2577 36.2347C36.7938 40.2066 32.3802 49.2642 34.5752 56.4813C35.9998 61.1555 40.5297 66.75 54.0037 66.75C67.4777 66.75 72.0081 61.1555 73.4327 56.4813C75.6046 49.2881 71.2141 40.206 65.7502 36.2341C62.5274 33.9087 60.9399 31.2207 60.2622 29.84C59.9823 29.2834 59.1416 28 57.1799 28Z" fill="#1D1D38"/>
</g>
<defs>
<filter id="filter0_dd_3682_16211" x="0" y="0" width="141" height="141" filterUnits="userSpaceOnUse" color-interpolation-filters="sRGB">
<feFlood flood-opacity="0" result="BackgroundImageFix"/>
<feColorMatrix in="SourceAlpha" type="matrix" values="0 0 0 0 0 0 0 0 0 0 0 0 0 0 0 0 0 0 127 0" result="hardAlpha"/>
<feOffset dx="15" dy="15"/>
<feGaussianBlur stdDeviation="15"/>
<feComposite in2="hardAlpha" operator="out"/>
<feColorMatrix type="matrix" values="0 0 0 0 0 0 0 0 0 0 0 0 0 0 0 0 0 0 0.1 0"/>
<feBlend mode="normal" in2="BackgroundImageFix" result="effect1_dropShadow_3682_16211"/>
<feColorMatrix in="SourceAlpha" type="matrix" values="0 0 0 0 0 0 0 0 0 0 0 0 0 0 0 0 0 0 127 0" result="hardAlpha"/>
<feOffset/>
<feGaussianBlur stdDeviation="5"/>
<feComposite in2="hardAlpha" operator="out"/>
<feColorMatrix type="matrix" values="0 0 0 0 0.568627 0 0 0 0 0.909804 0 0 0 0 0.701961 0 0 0 0.15 0"/>
<feBlend mode="normal" in2="effect1_dropShadow_3682_16211" result="effect2_dropShadow_3682_16211"/>
<feBlend mode="normal" in="SourceGraphic" in2="effect2_dropShadow_3682_16211" result="shape"/>
</filter>
<clipPath id="clip0_3682_16211">
<rect width="40" height="38.75" fill="white" transform="translate(34 28)"/>
</clipPath>
</defs>
</svg>
