<svg width="141" height="141" viewBox="0 0 141 141" fill="none" xmlns="http://www.w3.org/2000/svg">
<g filter="url(#filter0_dd_3682_16213)">
<rect x="15" y="15" width="81" height="81" rx="10" fill="white"/>
</g>
<path d="M44.72 81.66V80.246H48.052V80.806C48.052 81.086 48.052 81.38 48.024 81.66H44.72ZM44.72 78.02H48.052V79.42H44.72V78.02ZM52.644 78.02V79.42H49.116V78.02H52.644ZM52.644 81.66H49.088C49.102 81.394 49.116 81.1 49.116 80.82V80.246H52.644V81.66ZM53.666 82.528V77.152H49.116V75.976H54.548V75.038H42.452V75.976H48.052V77.152H43.726V82.528H47.884C47.716 83.2 47.394 83.83 46.75 84.376C46.092 83.942 45.532 83.368 45.056 82.64L44.188 82.99C44.664 83.802 45.238 84.446 45.91 84.964C45.056 85.454 43.866 85.846 42.2 86.168C42.424 86.406 42.704 86.84 42.816 87.078C44.636 86.7 45.938 86.182 46.876 85.566C48.78 86.574 51.328 86.882 54.562 87.022C54.618 86.686 54.814 86.252 54.996 86C51.888 85.916 49.48 85.706 47.716 84.908C48.416 84.194 48.794 83.396 48.962 82.528H53.666ZM65.02 76.34C64.404 77.152 63.564 77.88 62.612 78.51C62.038 78.006 61.044 77.404 60.134 76.942C60.442 76.746 60.736 76.55 61.016 76.34H65.02ZM65.86 75.402L65.678 75.458H62.094C62.43 75.15 62.738 74.842 63.018 74.52L61.856 74.268C60.89 75.43 59.07 76.746 56.564 77.628C56.788 77.796 57.124 78.146 57.278 78.398C57.992 78.104 58.65 77.796 59.266 77.46C60.134 77.908 61.114 78.524 61.716 79.042C60.092 79.938 58.202 80.582 56.452 80.904C56.648 81.128 56.858 81.534 56.956 81.814C60.624 81.016 64.726 79.056 66.518 75.822L65.86 75.402ZM67.134 81.212C66.518 82.276 65.622 83.144 64.558 83.844C63.928 83.27 62.85 82.542 61.884 82.01C62.318 81.744 62.738 81.492 63.116 81.212H67.134ZM67.904 80.274L67.708 80.316H64.236C64.614 79.98 64.95 79.63 65.258 79.28L64.11 79.014C63.018 80.344 60.904 81.786 57.978 82.71C58.188 82.892 58.482 83.27 58.608 83.494C59.448 83.2 60.232 82.864 60.946 82.514C61.912 83.032 62.976 83.788 63.634 84.39C61.842 85.328 59.686 85.888 57.502 86.154C57.67 86.378 57.88 86.826 57.964 87.092C62.486 86.434 66.826 84.698 68.576 80.652L67.904 80.274Z" fill="#1D1D38"/>
<path fill-rule="evenodd" clip-rule="evenodd" d="M67.8772 49.1126C68.1817 48.808 68.6755 48.808 68.98 49.1126C69.2845 49.4171 69.2845 49.9109 68.98 50.2154L68.4286 50.7668C67.6934 54.4429 66.7743 56.8324 65.6715 57.9352C64.0173 59.5894 61.6801 59.4579 60.1574 57.9352C58.6347 56.4125 58.5031 54.0753 60.1574 52.4211C61.2602 51.3182 63.6497 50.3992 67.3257 49.664L67.8772 49.1126ZM40.8034 48.801C41.0188 48.428 41.4957 48.3002 41.8687 48.5156L42.544 48.9055C46.2852 48.6642 48.8311 48.9335 50.1817 49.7133C52.2078 50.883 52.6856 53.1746 51.6089 55.0395C50.5322 56.9044 48.3087 57.6364 46.2827 56.4667C44.932 55.6869 43.4258 53.6167 41.7642 50.2562L41.0889 49.8663C40.7159 49.6509 40.5881 49.174 40.8034 48.801ZM56.6037 32.9486C57.0344 32.9486 57.3835 33.2977 57.3835 33.7284V34.5082C59.463 37.6275 60.5028 39.9669 60.5028 41.5266C60.5028 43.866 58.7571 45.4257 56.6037 45.4257C54.4503 45.4257 52.7046 43.866 52.7046 41.5266C52.7046 39.9669 53.7444 37.6275 55.8239 34.5082V33.7284C55.8239 33.2977 56.173 32.9486 56.6037 32.9486ZM67.1131 30.8978C69.1931 30.3404 71.2829 31.3951 71.8884 33.6548C72.2921 35.1613 71.8933 37.6902 70.6919 41.2414L70.8938 41.9946C71.0052 42.4106 70.7584 42.8382 70.3424 42.9497C69.9263 43.0612 69.4987 42.8143 69.3873 42.3983L69.1854 41.645C66.3695 39.1703 64.7596 37.1796 64.356 35.6731C63.7505 33.4134 65.033 31.4551 67.1131 30.8978ZM45.5854 26.8973L45.7413 26.9226C46.1573 27.0341 46.4042 27.4617 46.2927 27.8777L46.0909 28.631C47.2922 32.1822 47.6911 34.711 47.2874 36.2175C46.6819 38.4772 44.592 39.5319 42.512 38.9746C40.432 38.4172 39.1494 36.4589 39.7549 34.1992C40.1586 32.6927 41.7684 30.7021 44.5844 28.2273L44.7862 27.4741C44.8977 27.058 45.3253 26.8112 45.7413 26.9226L45.5854 26.8973Z" fill="url(#paint0_linear_3682_16213)" stroke="#1D1D38" stroke-width="1.94954" stroke-linecap="round"/>
<defs>
<filter id="filter0_dd_3682_16213" x="0" y="0" width="141" height="141" filterUnits="userSpaceOnUse" color-interpolation-filters="sRGB">
<feFlood flood-opacity="0" result="BackgroundImageFix"/>
<feColorMatrix in="SourceAlpha" type="matrix" values="0 0 0 0 0 0 0 0 0 0 0 0 0 0 0 0 0 0 127 0" result="hardAlpha"/>
<feOffset dx="15" dy="15"/>
<feGaussianBlur stdDeviation="15"/>
<feComposite in2="hardAlpha" operator="out"/>
<feColorMatrix type="matrix" values="0 0 0 0 0 0 0 0 0 0 0 0 0 0 0 0 0 0 0.1 0"/>
<feBlend mode="normal" in2="BackgroundImageFix" result="effect1_dropShadow_3682_16213"/>
<feColorMatrix in="SourceAlpha" type="matrix" values="0 0 0 0 0 0 0 0 0 0 0 0 0 0 0 0 0 0 127 0" result="hardAlpha"/>
<feOffset/>
<feGaussianBlur stdDeviation="5"/>
<feComposite in2="hardAlpha" operator="out"/>
<feColorMatrix type="matrix" values="0 0 0 0 0.568627 0 0 0 0 0.909804 0 0 0 0 0.701961 0 0 0 0.15 0"/>
<feBlend mode="normal" in2="effect1_dropShadow_3682_16213" result="effect2_dropShadow_3682_16213"/>
<feBlend mode="normal" in="SourceGraphic" in2="effect2_dropShadow_3682_16213" result="shape"/>
</filter>
<linearGradient id="paint0_linear_3682_16213" x1="72.0407" y1="43.0115" x2="39.6045" y2="43.0115" gradientUnits="userSpaceOnUse">
<stop stop-color="#91E8B3"/>
<stop offset="1" stop-color="#C0E57B"/>
<stop offset="1" stop-color="#C0E57B"/>
</linearGradient>
</defs>
</svg>
