<svg width="141" height="141" viewBox="0 0 141 141" fill="none" xmlns="http://www.w3.org/2000/svg">
<g filter="url(#filter0_dd_3682_16217)">
<rect x="15" y="15" width="81" height="81" rx="10" fill="white"/>
</g>
<path d="M40.716 79.938H35.018V76.34H40.072V75.29H29.012V76.34H33.884V79.938H28.298V81.002H33.884V87.05H35.018V81.002H40.716V79.938ZM48.808 77.964C48.808 79.056 49.172 79.336 50.572 79.336H53.12C54.24 79.336 54.562 78.93 54.674 77.39C54.394 77.334 53.974 77.18 53.75 77.012C53.694 78.244 53.582 78.44 53.036 78.44H50.656C49.956 78.44 49.83 78.356 49.83 77.964V77.012C51.552 76.606 53.176 76.088 54.366 75.472L53.666 74.73C52.742 75.262 51.342 75.738 49.83 76.144V74.352H48.808V76.41C48.108 76.578 47.408 76.718 46.708 76.858C46.834 77.068 46.974 77.404 47.016 77.614C47.604 77.502 48.206 77.39 48.808 77.264V77.964ZM52.966 84.502V80.176H44.23V84.586H45.28V81.142H51.888V84.502H52.966ZM44.72 79.616H45.756V75.976C46.246 75.528 46.708 75.052 47.072 74.576L46.12 74.226C45.182 75.43 43.628 76.578 42.102 77.292C42.34 77.46 42.718 77.838 42.872 78.034C43.474 77.698 44.104 77.292 44.72 76.83V79.616ZM49.018 81.702H47.94V82.892C47.94 83.956 47.52 85.328 42.438 86.238C42.676 86.448 42.984 86.854 43.082 87.064C48.36 86.014 49.018 84.32 49.018 82.92V81.702ZM48.878 85.02C50.628 85.552 52.882 86.434 54.03 87.078L54.618 86.266C53.4 85.608 51.146 84.782 49.438 84.292L48.878 85.02ZM64.544 76.928V78.916C64.544 79.966 64.838 80.26 65.916 80.26H67.47C68.394 80.26 68.688 79.826 68.786 78.09C68.506 78.02 68.072 77.852 67.848 77.684C67.806 79.098 67.736 79.28 67.372 79.28H66.028C65.636 79.28 65.566 79.224 65.566 78.888V75.934H61.716C61.828 75.416 61.912 74.87 61.982 74.296H60.932C60.862 74.87 60.778 75.416 60.652 75.934H56.984V76.928H60.316C59.728 78.258 58.58 79.266 56.228 79.84C56.438 80.05 56.69 80.442 56.802 80.694C59.546 79.952 60.806 78.65 61.436 76.928H64.544ZM59.224 83.032C58.594 84.026 57.53 84.978 56.466 85.58C56.704 85.734 57.124 86.112 57.292 86.322C58.356 85.608 59.532 84.488 60.246 83.354L59.224 83.032ZM64.404 83.466C65.37 84.278 66.546 85.44 67.078 86.196L68.002 85.678C67.428 84.908 66.224 83.788 65.272 83.004L64.404 83.466ZM62.976 79.994H61.898V81.268H56.522V82.262H61.898V85.804C61.898 86 61.828 86.056 61.604 86.056C61.394 86.07 60.624 86.084 59.812 86.042C59.966 86.336 60.134 86.756 60.19 87.05C61.268 87.05 61.968 87.036 62.402 86.882C62.836 86.714 62.976 86.434 62.976 85.818V82.262H68.408V81.268H62.976V79.994ZM74.484 75.178C74.274 76.074 73.882 77.432 73.532 78.258L74.246 78.482C74.624 77.698 75.058 76.438 75.408 75.402L74.484 75.178ZM71.81 78.244C71.74 77.432 71.432 76.2 71.054 75.262L70.284 75.444C70.662 76.41 70.942 77.642 70.984 78.454L71.81 78.244ZM75.254 82.934C74.974 82.584 73.756 81.184 73.28 80.694V80.05H75.184V79.084H73.28V74.296H72.3V79.084H70.186V80.05H72.09C71.614 81.534 70.774 83.214 69.99 84.152C70.172 84.404 70.424 84.866 70.55 85.146C71.18 84.348 71.81 83.046 72.3 81.73V87.05H73.28V81.856C73.77 82.5 74.358 83.326 74.61 83.76L75.254 82.934ZM76.962 79.196H81.134V80.708H76.962V79.196ZM81.134 76.858V78.328H76.962V76.858H81.134ZM82.03 81.996C81.54 82.444 80.756 83.004 80.084 83.452C79.79 82.892 79.552 82.29 79.356 81.646H82.156V75.92H79.482V74.296H78.418V75.92H75.968V85.608C75.562 85.678 75.184 85.734 74.862 85.79L75.17 86.784C76.458 86.518 78.194 86.168 79.804 85.804L79.734 84.894C78.796 85.09 77.83 85.272 76.962 85.426V81.646H78.39C79.048 84.194 80.294 86.126 82.338 87.064C82.492 86.798 82.814 86.378 83.038 86.182C82.016 85.776 81.19 85.09 80.56 84.208C81.26 83.774 82.114 83.214 82.744 82.668L82.03 81.996Z" fill="#1D1D38"/>
<g clip-path="url(#clip0_3682_16217)">
<path d="M69.5656 55.8874C68.939 56.2625 68.668 55.8198 66.3925 56.6999C64.117 57.5805 61.302 58.1775 60.1524 57.8976C59.0033 57.6177 57.1916 57.8555 55.7853 56.1531C54.379 54.4503 51.3367 52.274 49.8409 50.6251C48.3447 48.9766 46.9862 45.5483 46.2583 42.9532C45.5304 40.3589 44.5604 35.3635 46.061 33.615C47.5613 31.8656 48.9725 30.1705 49.5946 28.5835C50.2164 26.9966 50.4638 26.0006 51.4671 25.6409C52.4708 25.2812 56.1883 25.9609 56.9583 25.6199C57.7287 25.2792 62.5884 24.4246 64.7112 25.6976C66.8336 26.9703 69.6669 31.211 70.7111 31.9187C71.7549 32.6263 74.275 34.7515 74.7676 36.7597C75.2597 38.7683 75.4359 42.6636 75.7636 43.801C76.0908 44.9387 75.5116 48.1961 75.0847 49.301C74.6582 50.4064 72.71 52.4231 71.3887 54.0647C70.0671 55.7068 70.1906 55.5115 69.5656 55.8874Z" fill="#FAAD91"/>
<path d="M75.7616 43.8044C76.0893 44.9417 75.5093 48.1995 75.0828 49.3044C74.6563 50.4094 72.7076 52.4265 71.3864 54.0681C70.0655 55.7102 70.1899 55.5137 69.5633 55.89C68.9367 56.2659 68.6657 55.822 66.3902 56.7025C64.271 57.5219 61.6856 58.0959 60.4118 57.9448C60.6981 57.5568 61.0044 57.1837 61.3304 56.8281C61.3304 56.8281 71.1183 54.2293 72.5395 45.7385C72.8624 43.808 72.928 39.564 66.3489 31.9925C63.0798 28.2301 59.7832 26.4018 57.2934 25.5135C58.6401 25.1384 62.7898 24.5495 64.7097 25.701C66.8321 26.9733 69.6654 31.2145 70.7096 31.9221C71.7534 32.6297 74.2735 34.7549 74.7661 36.7631C75.2582 38.7717 75.434 42.6666 75.7616 43.8044Z" fill="#E16E48"/>
<path d="M43.6862 58.9845C42.7518 58.9383 41.9648 59.6909 40.9185 58.1481C39.8723 56.6053 38.6665 54.495 38.3955 52.4317C38.125 50.3684 37.6365 48.9005 38.677 46.8551C39.7172 44.8092 39.6625 42.1513 40.6318 41.5008C41.6014 40.8503 44.0633 40.3201 45.2484 39.075C46.4336 37.8299 50.2543 36.3876 52.361 37.3321C54.468 38.2767 55.059 39.5627 55.059 39.5627C56.2838 39.472 57.4714 40.0042 58.2195 40.9779C59.4484 42.6228 60.6979 45.7133 60.4343 47.2378C60.1698 48.7624 60.7308 51.5852 59.8806 52.6614C59.0304 53.7376 57.2903 55.7474 56.8675 56.7049C56.4446 57.6624 53.5364 59.6139 51.9069 60.3717C50.2774 61.1296 47.8897 61.1036 45.9925 60.6366C44.0957 60.17 44.621 59.031 43.6862 58.9845Z" fill="#FFD9C3"/>
<path d="M60.4297 47.2363C60.166 48.7609 60.7262 51.5837 59.8764 52.6598C59.0258 53.736 57.2858 55.7459 56.8629 56.7034C56.44 57.6609 53.5322 59.6124 51.9024 60.3702C50.2733 61.1281 47.8852 61.1021 45.9883 60.6351C44.695 60.3168 44.5274 59.6865 44.256 59.3029C46.4533 58.8845 49.6212 57.6313 52.9174 54.131C58.9533 47.722 58.5378 42.949 58.5378 42.949L60.386 45.9605C60.4702 46.3805 60.4848 46.8115 60.4297 47.2363Z" fill="#FCA573"/>
<path d="M48.0719 41.1291C47.5308 40.3612 45.9131 42.1559 44.8786 43.2755C44.1872 44.0916 43.6509 45.0277 43.2957 46.0366C43.2957 46.0366 44.5456 45.0552 46.0257 44.0126C47.5065 42.9705 47.7402 43.0345 48.1469 42.4257C48.445 41.9789 48.6127 41.8967 48.0719 41.1291Z" fill="white"/>
<path d="M75.9109 49.8975C74.3049 52.6073 73.0902 53.0451 72.5478 54.0982C72.0055 55.1513 71.7884 56.0088 70.758 56.6273C70.5769 56.7367 70.3898 56.8355 70.1982 56.9238C70.0301 57.0522 69.8543 57.1705 69.6729 57.2782C68.6416 57.8967 67.774 57.6901 66.5808 57.6784C65.3875 57.667 64.432 58.531 61.2642 58.6853C59.8972 58.7428 58.5379 58.4536 57.3122 57.8453C57.036 58.367 56.6508 58.823 56.1834 59.1835C54.6466 60.4116 53.9495 59.8417 53.31 60.4387C52.6712 61.0358 50.6586 61.939 50.0097 61.8122C49.36 61.6851 48.5487 61.5307 47.9075 61.7077C46.7714 61.892 45.6061 61.7369 44.5578 61.2614C43.9385 60.9677 43.4602 60.4416 43.2261 59.7976C42.5529 59.932 41.8534 59.7976 41.2778 59.4225C40.3284 58.7781 39.5916 57.8655 39.1619 56.8015C38.9829 56.1635 38.4279 55.5535 37.9844 55.0655C37.5409 54.5774 37.2768 52.3962 37.4607 51.5436C37.6438 50.6902 36.7924 50.3921 37.0544 48.4495C37.3161 46.5069 38.4672 45.9573 38.9043 45.1873C39.3409 44.4165 38.7791 43.5035 39.6257 42.0085C40.4722 40.5131 42.4229 39.9343 43.1151 39.6646C43.4841 39.5216 43.8033 39.1441 44.2322 38.7107C44.2123 38.4774 44.2002 38.2433 44.1949 38.0087C44.1305 33.1397 46.4137 31.8047 47.0748 31.1887C47.7358 30.5734 48.5183 30.0327 48.7039 28.3927C48.8894 26.7526 49.5735 25.6886 50.7125 25.0041C51.8522 24.3204 53.1192 24.2146 54.6705 24.8121C56.2222 25.4095 57.0672 24.9757 57.9234 24.6796C58.7797 24.3835 61.0309 23.0003 65.3507 25.3168C68.1041 26.7931 69.0698 28.6154 70.7158 30.464C72.3619 32.3126 74.3252 33.4642 75.1049 35.8333C75.8846 38.2024 75.8838 40.3859 76.4573 42.2965C77.0313 44.2071 77.5181 47.1882 75.9109 49.8975ZM46.6645 60.0896C47.3543 60.0483 48.0465 60.1131 48.7168 60.282C49.3552 60.4278 51.5809 59.1491 52.1755 58.6306C52.7693 58.1122 53.4752 58.6675 54.9144 57.6116C56.3539 56.5556 56.1748 55.3895 56.5641 54.703C56.9537 54.0156 58.0012 54.0723 58.7586 52.7389C59.5152 51.4059 58.9259 49.5844 58.7679 48.9104C58.61 48.2361 59.5015 47.5114 59.3228 46.0261C59.1446 44.5413 58.3447 43.2233 58.0984 42.4642C56.7735 38.3571 54.6005 41.6444 54.6835 41.4978L53.8685 42.9357C54.2258 42.7315 54.6543 42.6931 55.0419 42.83C55.8055 43.0564 56.1416 43.5991 55.6374 44.2261C55.1331 44.8527 54.9577 44.5518 54.1286 44.4404C53.2999 44.329 52.5789 45.3396 52.5789 45.3396L52.4914 45.3651L50.9421 48.1004C51.2994 47.8966 51.7275 47.8577 52.1151 47.9951C52.8786 48.2215 53.2148 48.7638 52.7109 49.3908C52.2071 50.0174 52.0309 49.7165 51.2022 49.6055C50.373 49.4937 49.6521 50.5047 49.6521 50.5047L49.5646 50.5298L47.8573 53.5381C48.215 53.3343 48.6431 53.2954 49.0307 53.4323C49.7942 53.6588 50.1304 54.2011 49.6265 54.8281C49.1227 55.4551 48.9465 55.1542 48.1178 55.0432C47.289 54.9314 46.5673 55.942 46.5673 55.942L46.4794 55.9679L45.3481 57.9656C45.6373 57.454 43.7397 60.4063 46.6645 60.0896ZM41.2669 42.9239C40.5111 44.2573 41.102 45.1213 40.7124 45.8082C40.3227 46.4948 39.2271 46.9448 39.063 48.7168C38.8986 50.4885 39.7419 50.802 39.6034 51.576C39.4644 52.3505 39.5163 54.9067 39.9712 55.3749C40.4495 55.8687 40.8622 56.4224 41.1984 57.0222C42.4172 59.2901 43.8822 57.3066 44.0556 57.0668L43.9584 57.2381C43.8551 57.5237 43.9875 57.8412 44.2634 57.968C44.5396 58.0956 44.8673 57.9899 45.0172 57.7258C45.1674 57.4613 45.0897 57.1259 44.8389 56.9542C44.5882 56.7828 44.2476 56.8314 44.0556 57.0668L45.1136 55.2003L45.0901 55.1125C45.0901 55.1125 45.5862 53.9759 45.0621 53.3282C44.538 52.6806 44.1872 52.6858 44.4663 51.9325C44.7458 51.1791 45.3858 51.1848 45.9751 51.7178C46.293 51.9762 46.4814 52.361 46.4911 52.7709L48.1967 49.7631L48.1732 49.6756C48.1732 49.6756 48.669 48.5382 48.1449 47.8906C47.6208 47.2429 47.27 47.2482 47.5495 46.4948C47.829 45.7414 48.4685 45.7471 49.0583 46.2805C49.3758 46.5385 49.5646 46.9237 49.5743 47.3332L51.126 44.598L51.1025 44.5105C51.1025 44.5105 51.5983 43.3735 51.0742 42.7255C50.5504 42.0782 50.1993 42.0835 50.4787 41.3301C50.7582 40.5767 51.3982 40.5824 51.9875 41.1154C52.3055 41.3742 52.4938 41.759 52.5031 42.1685L53.2962 40.7703C53.4424 40.5127 54.4311 37.5587 50.4476 38.1708C49.6541 38.2927 48.121 38.3559 46.7507 38.9719C45.3809 39.588 45.2197 40.7221 44.5562 40.9356C43.8932 41.1494 42.0227 41.5909 41.2669 42.9239ZM49.3701 31.3166C49.3564 31.33 49.3422 31.3442 49.328 31.3567C48.6824 31.9372 46.5588 33.2005 46.2623 37.3271C46.7386 37.1391 47.2299 36.9921 47.7309 36.8872C47.7147 36.7325 47.6998 36.5769 47.6868 36.4214C47.5288 34.5185 49.33 34.4812 49.5111 36.2087C49.5212 36.3023 49.5334 36.4056 49.5455 36.5073C49.5613 36.5024 49.5808 36.4988 49.5958 36.4939C49.9656 36.3728 50.3447 36.2845 50.7299 36.2306C50.1839 34.6202 49.7298 32.9793 49.3701 31.3166ZM51.1795 27.2427C51.0397 27.6101 50.9393 27.9913 50.8793 28.3793C50.8287 28.7082 50.7517 29.0322 50.6489 29.3481C51.1649 31.6856 51.8393 33.9855 52.6656 36.2318C52.6923 36.308 52.7081 36.387 52.713 36.4668C52.751 36.4842 52.7899 36.4951 52.8276 36.5141C54.6851 37.4704 55.2522 38.5912 55.2522 38.5912C55.2522 38.5912 56.5609 38.4158 58.2932 39.5811C59.2127 40.1992 59.7894 41.4958 59.981 42.3208C60.1722 43.1459 60.947 44.5352 61.0532 46.1481C61.1593 47.7609 60.4776 48.7517 60.6048 49.4803C60.6149 49.5379 60.6279 49.6055 60.6416 49.6776C62.0998 51.218 63.7054 52.6121 65.4361 53.8394C66.2993 54.4405 65.703 56.219 64.2396 55.3632C62.9795 54.5875 61.8171 53.6632 60.7773 52.6109C60.7065 52.9795 60.5781 53.3343 60.3962 53.662C59.548 55.1574 58.4714 55.1505 58.034 55.9213C58.0145 55.9566 57.9967 55.9938 57.9785 56.0315C59.3099 56.7124 60.8041 57.008 62.2942 56.8853C65.4264 56.6212 66.4026 55.767 67.5796 55.7338C68.0389 55.7204 68.446 55.7338 68.8356 55.7208C67.8486 53.6515 64.8634 47.5827 60.7332 40.8173C57.8363 36.0957 54.6454 31.5617 51.1795 27.2415V27.2427V27.2427ZM74.6537 42.7429C74.1595 40.953 74.2429 38.8845 73.5629 36.6677C72.8832 34.4517 70.9901 33.4338 69.4343 31.7428C67.8789 30.0517 66.9968 28.3611 64.3336 27.0641C60.1584 25.0288 57.8841 26.4237 57.0275 26.736C55.9379 27.1472 54.7345 27.1399 53.649 26.7166C53.4177 26.6396 53.1816 26.5764 52.9422 26.5278C54.5539 28.6482 58.0696 33.4496 62.0759 40.0117C64.9821 44.7442 67.6436 49.6221 70.0504 54.6264C70.1443 54.4478 70.2403 54.2647 70.3497 54.0715C70.583 53.6976 70.871 53.3606 71.2031 53.0714C70.713 50.9879 70.0986 48.9352 69.3618 46.9253C69.0078 45.9589 70.5271 44.7337 71.0492 46.2064C71.6802 47.9801 72.1995 49.7914 72.6041 51.6299C73.0489 51.1033 73.458 50.5476 73.8278 49.966C75.5152 47.3385 75.1474 44.5307 74.6537 42.7413V42.7429ZM72.5114 46.9424C72.257 44.3124 71.5676 41.7432 70.4716 39.3393C69.2464 36.8357 67.6549 34.529 65.7496 32.4957C64.6953 31.4179 65.6873 29.884 66.7999 31.0339C68.5809 32.9397 70.135 35.0455 71.4328 37.3076C73.6471 41.0502 74.1976 45.048 74.3345 46.7269C74.4884 48.6241 72.6892 48.6642 72.5114 46.9424ZM68.2188 39.8302C68.8028 40.9003 67.416 42.2362 66.4888 40.5455C65.8031 39.2895 65.0449 38.0752 64.2174 36.9083C62.1233 34.0009 59.5618 31.4608 56.6374 29.3911C55.7763 28.7932 56.3749 27.0188 57.8351 27.8697C59.2592 28.6993 62.3197 30.9473 66.1539 36.474C66.9016 37.5551 67.5909 38.675 68.2188 39.8302Z" fill="#1D1D38"/>
</g>
<defs>
<filter id="filter0_dd_3682_16217" x="0" y="0" width="141" height="141" filterUnits="userSpaceOnUse" color-interpolation-filters="sRGB">
<feFlood flood-opacity="0" result="BackgroundImageFix"/>
<feColorMatrix in="SourceAlpha" type="matrix" values="0 0 0 0 0 0 0 0 0 0 0 0 0 0 0 0 0 0 127 0" result="hardAlpha"/>
<feOffset dx="15" dy="15"/>
<feGaussianBlur stdDeviation="15"/>
<feComposite in2="hardAlpha" operator="out"/>
<feColorMatrix type="matrix" values="0 0 0 0 0 0 0 0 0 0 0 0 0 0 0 0 0 0 0.1 0"/>
<feBlend mode="normal" in2="BackgroundImageFix" result="effect1_dropShadow_3682_16217"/>
<feColorMatrix in="SourceAlpha" type="matrix" values="0 0 0 0 0 0 0 0 0 0 0 0 0 0 0 0 0 0 127 0" result="hardAlpha"/>
<feOffset/>
<feGaussianBlur stdDeviation="5"/>
<feComposite in2="hardAlpha" operator="out"/>
<feColorMatrix type="matrix" values="0 0 0 0 0.568627 0 0 0 0 0.909804 0 0 0 0 0.701961 0 0 0 0.15 0"/>
<feBlend mode="normal" in2="effect1_dropShadow_3682_16217" result="effect2_dropShadow_3682_16217"/>
<feBlend mode="normal" in="SourceGraphic" in2="effect2_dropShadow_3682_16217" result="shape"/>
</filter>
<clipPath id="clip0_3682_16217">
<rect width="39.9983" height="40.0052" fill="white" transform="translate(37.0039 24)"/>
</clipPath>
</defs>
</svg>
