<svg width="141" height="141" viewBox="0 0 141 141" fill="none" xmlns="http://www.w3.org/2000/svg">
<g filter="url(#filter0_dd_3682_16209)">
<rect x="15" y="15" width="81" height="81" rx="10" fill="white"/>
</g>
<path d="M31.63 74.38C30.804 76.578 29.376 78.664 27.836 79.994C28.032 80.246 28.368 80.792 28.466 81.044C29.04 80.512 29.6 79.882 30.118 79.196V87.05H31.14V77.698C31.728 76.746 32.246 75.724 32.666 74.702L31.63 74.38ZM40.8 78.846V77.838H36.754V74.478H35.732V77.838H31.798V78.846H35.186C34.304 81.128 32.82 83.382 31.308 84.572C31.546 84.754 31.896 85.132 32.092 85.37C33.464 84.166 34.794 82.164 35.732 79.98V87.078H36.754V79.686C37.692 81.926 39.022 84.054 40.38 85.314C40.548 85.034 40.912 84.67 41.164 84.474C39.708 83.298 38.252 81.072 37.356 78.846H40.8ZM46.078 76.9C45.658 76.2 44.762 75.164 44.006 74.408L43.208 74.898C43.992 75.682 44.86 76.774 45.238 77.488L46.078 76.9ZM42.676 87.064H43.67V77.474H42.676V87.064ZM52.294 83.41C51.678 82.528 50.474 81.198 49.34 80.092H52.392V79.21H48.976V77.32H48.038V79.21H44.818V80.092H47.604C46.876 81.562 45.7 82.934 44.482 83.648C44.706 83.83 45 84.166 45.154 84.404C46.232 83.662 47.282 82.43 48.038 81.016V85.888H48.976V80.988C49.97 82.024 50.992 83.228 51.538 84.04L52.294 83.41ZM54.324 74.884H46.512V75.864H53.316V85.566C53.316 85.818 53.232 85.916 52.966 85.916C52.686 85.93 51.762 85.944 50.796 85.902C50.964 86.182 51.132 86.644 51.174 86.938C52.406 86.938 53.232 86.91 53.708 86.742C54.17 86.574 54.324 86.252 54.324 85.566V74.884ZM57.558 77.152H61.954V79.308H62.962V77.152H67.428V78.86H68.394V76.424H62.962V75.64H67.582V74.842H57.418V75.64H61.954V76.424H56.62V78.86H57.558V77.152ZM63.662 79.952H67.106V79.28H63.662V79.952ZM63.662 77.894V78.552H66.756V77.894H63.662ZM57.936 79.952H61.268V79.28H57.936V79.952ZM58.23 77.894V78.552H61.254V77.894H58.23ZM66.882 83.424H57.656V84.18H61.016V87.064H62.01V84.18H65.874V85.342C65.874 85.51 65.818 85.552 65.608 85.552C65.426 85.552 64.796 85.566 64.012 85.552C64.152 85.79 64.306 86.112 64.362 86.378C65.342 86.378 65.972 86.378 66.364 86.224C66.784 86.098 66.882 85.846 66.882 85.356V83.424ZM60.218 81.814C61.114 81.338 61.898 80.82 62.444 80.316C63.06 80.848 63.886 81.366 64.782 81.814H60.218ZM61.926 79.56C60.736 80.75 58.44 81.884 56.06 82.486C56.242 82.696 56.452 83.046 56.536 83.284C57.726 82.948 58.93 82.472 59.98 81.94V82.556H65.048V81.94C66.168 82.472 67.386 82.92 68.464 83.172C68.59 82.92 68.8 82.556 68.996 82.318C66.854 81.884 64.432 80.904 62.85 79.56H61.926ZM80.364 83.018C79.65 83.508 78.796 84.012 78.068 84.376C77.55 83.984 77.13 83.536 76.794 83.018H80.364ZM73.56 80.932H79.454V82.164H73.56V80.932ZM73.56 78.958H79.454V80.134H73.56V78.958ZM76.99 78.104V76.718H75.94V78.104H73.056C74.442 77.194 75.674 76.144 76.444 75.206C77.298 76.2 78.628 77.236 80.014 78.104H76.99ZM81.246 82.388C81.022 82.556 80.756 82.752 80.476 82.948V78.384C81.106 78.748 81.736 79.084 82.338 79.35C82.52 79.07 82.772 78.692 83.01 78.44C80.84 77.628 78.418 76.018 76.892 74.268H75.87C74.75 75.822 72.412 77.572 70.046 78.594C70.27 78.818 70.536 79.196 70.662 79.434C71.292 79.14 71.936 78.804 72.538 78.426V85.832C71.95 85.888 71.418 85.93 70.956 85.972L71.11 86.938C72.706 86.798 74.988 86.574 77.172 86.336L77.158 85.412L73.56 85.748V83.018H75.744C76.934 85.244 79.16 86.546 82.17 87.064C82.31 86.798 82.576 86.378 82.8 86.168C81.26 85.944 79.916 85.524 78.838 84.894C79.888 84.362 81.092 83.662 82.03 82.99L81.246 82.388Z" fill="#1D1D38"/>
<path d="M54.9992 28.0938C44.5706 28.0938 36.0938 36.545 36.0938 46.9994C36.0938 57.4286 44.5449 65.905 54.9992 65.905C65.4282 65.905 73.9045 57.4538 73.9045 46.9994C73.9045 36.545 65.4282 28.0938 54.9992 28.0938ZM54.9992 53.2671C51.5315 53.2671 48.7059 50.4414 48.7059 46.9738C48.7059 43.5061 51.5315 40.6804 54.9992 40.6804C58.4668 40.6804 61.2924 43.5061 61.2924 46.9738C61.2924 50.4676 58.4673 53.2671 54.9992 53.2671Z" fill="#EDB66B"/>
<path d="M46.469 53.1646C46.0018 53.1646 45.6085 52.9923 45.3131 52.6974C44.6244 51.9841 44.649 50.7548 44.6982 49.3041C44.7229 48.0497 44.7721 46.4759 44.1818 45.8615C44.0588 45.7138 43.8131 45.542 43.2475 45.5174H43.149C42.5342 45.5174 42.0916 45.6405 41.8455 45.9107C41.3537 46.4272 41.4275 47.5831 41.4767 48.5174C41.5506 49.501 41.5998 50.362 41.0342 50.8538C40.6162 51.2472 40.0506 51.4441 39.4357 51.4441C38.2306 51.4441 36.8045 50.6082 36.3373 49.6246C36.2886 49.5256 36.264 49.4518 36.264 49.3533L36.2394 49.1072C36.1655 48.1728 36.0671 47.14 36.0671 46.6974C36.0671 36.2707 44.5505 27.8118 54.952 27.8118C65.3534 27.8118 73.8373 36.2954 73.8373 46.6974C73.8373 47.1154 73.8127 47.5579 73.7881 47.9764C73.6897 49.2795 72.6322 50.2877 71.3538 50.2877C71.0835 50.2877 70.7882 50.2384 70.5179 50.14C69.2882 49.6728 68.2554 48.7877 67.2718 47.9266C65.8457 46.6723 64.4929 45.5169 62.5749 45.4677C61.3698 45.4431 60.2878 44.7789 59.7227 43.7461C58.3458 41.1887 58.1735 41.0902 54.7063 41.0902C48.3131 41.0902 48.3131 44.6805 48.3131 45.861C48.3131 46.5251 48.3623 47.2379 48.3869 47.9266C48.51 49.9431 48.6084 51.7133 47.7474 52.6236C47.4772 52.9682 47.01 53.1646 46.469 53.1646Z" fill="#86522C"/>
<path d="M54.9977 28.6231C64.9812 28.6231 73.096 36.7133 73.096 46.7215C73.096 47.1395 73.0714 47.5574 73.0467 47.9513C72.9729 48.8364 72.2355 49.5005 71.4242 49.5005C71.2519 49.5005 71.0555 49.4759 70.8832 49.402C68.1289 48.3692 66.334 44.7544 62.6705 44.681C61.7853 44.6564 60.9243 44.1646 60.5064 43.3774C58.9572 40.4759 58.4408 40.3036 54.7767 40.3036C50.6947 40.3036 47.5717 41.6805 47.5717 45.861C47.5717 48.861 48.3342 52.3528 46.4896 52.3528C44.0553 52.3528 47.424 44.8282 43.2933 44.7297H43.1702C39.162 44.7297 41.3753 49.5005 40.5395 50.2872C40.2441 50.5579 39.8754 50.6559 39.482 50.6559C38.4985 50.6559 37.4164 49.9672 37.121 49.3036C37.0718 48.7872 36.9487 47.2379 36.9487 46.7215C36.8995 36.7133 45.0143 28.6231 54.9977 28.6231ZM54.9977 27C44.1292 27 35.3011 35.8282 35.3011 46.6969C35.3011 47.1641 35.3995 48.2215 35.4734 49.1805L35.498 49.4262C35.5226 49.6231 35.5718 49.8195 35.6457 49.9918C36.2605 51.2703 37.9328 52.2544 39.4574 52.2544C40.2687 52.2544 41.0066 51.9836 41.5969 51.4672C42.4574 50.7051 42.3835 49.5738 42.3097 48.4672C42.2851 47.9015 42.1866 46.7456 42.4574 46.4754C42.5066 46.4262 42.7276 46.3277 43.1702 46.3277H43.244C43.3179 46.3277 43.5389 46.3277 43.6128 46.4015C43.9815 46.7703 43.9322 48.3933 43.9076 49.2785C43.8584 50.8277 43.8338 52.3031 44.7435 53.2374C45.1861 53.7046 45.8009 53.9508 46.4896 53.9508C47.2522 53.9508 47.9158 53.68 48.4076 53.1395C49.4896 51.9836 49.3911 50.0656 49.2681 47.8523C49.2188 47.1882 49.1942 46.4754 49.1942 45.8359C49.1942 44.6554 49.1942 41.8769 54.7762 41.8769C57.8992 41.8769 57.8992 41.8769 59.0792 44.1149C59.7679 45.4179 61.1448 46.2297 62.6202 46.2544C64.2433 46.279 65.4238 47.3113 66.8007 48.5164C67.8581 49.4262 68.9401 50.3856 70.2924 50.8774C70.6365 51.0005 71.0304 51.0744 71.3991 51.0744C73.096 51.0744 74.5221 49.7462 74.6201 48.0251C74.6447 47.5826 74.6693 47.1154 74.6693 46.6728C74.6949 35.8528 65.8668 27 54.9977 27Z" fill="#4C2F1B"/>
<path d="M57.7132 64.4201C57.8501 64.778 58.4122 64.8954 58.9686 64.6821C59.525 64.4693 59.865 64.0067 59.7281 63.6488C59.5911 63.2908 59.0291 63.1739 58.4727 63.3867C57.9163 63.6001 57.5763 64.0626 57.7132 64.4201Z" fill="#E3A358"/>
<path d="M68.0763 57.803C68.3158 58.4286 68.8984 58.8686 69.6045 58.9574C70.3106 59.0456 71.0327 58.7692 71.4994 58.2322C71.966 57.6948 72.106 56.9784 71.8665 56.3527C71.627 55.7266 71.0445 55.2871 70.3383 55.1984C69.6322 55.1102 68.9096 55.3866 68.443 55.9235C67.9763 56.4609 67.8368 57.1774 68.0763 57.803Z" fill="#E3A358"/>
<path d="M50.176 65.604C50.4155 66.2297 50.9981 66.6697 51.7042 66.7584C52.4104 66.8466 53.1329 66.5702 53.5996 66.0333C54.0662 65.4958 54.2062 64.7794 53.9668 64.1538C53.7273 63.5281 53.1447 63.0881 52.4386 62.9994C51.7324 62.9112 51.0099 63.1876 50.5432 63.7245C50.0766 64.262 49.9366 64.9784 50.176 65.604Z" fill="#E3A358"/>
<path d="M46.2413 62.708C46.6172 62.7931 46.9936 62.7433 47.2295 62.5767C47.4649 62.41 47.5234 62.1526 47.3829 61.9003C47.2423 61.6485 46.9244 61.4403 46.5485 61.3551C46.1726 61.2695 45.7962 61.3197 45.5603 61.4864C45.3249 61.6531 45.2665 61.9105 45.407 62.1623C45.547 62.4146 45.8654 62.6223 46.2413 62.708Z" fill="#E3A358"/>
<path d="M54.2902 55.0805C54.6035 55.1518 54.9092 55.1461 55.0923 55.0651C55.2753 54.9841 55.3076 54.841 55.1779 54.6892C55.0476 54.5374 54.7743 54.4 54.461 54.3287C54.1477 54.2574 53.842 54.263 53.6589 54.3441C53.4759 54.4251 53.4436 54.5682 53.5733 54.72C53.7036 54.8723 53.9769 55.0092 54.2902 55.0805Z" fill="#E3A358"/>
<path d="M40.1313 56.8409C40.3734 56.8958 40.616 56.8604 40.7688 56.7486C40.9216 56.6363 40.9601 56.4645 40.8713 56.2979C40.7821 56.1307 40.5785 55.9943 40.337 55.9394C40.0949 55.8845 39.8524 55.9194 39.7001 56.0317C39.5473 56.1435 39.5083 56.3158 39.5975 56.4825C39.6857 56.6491 39.8898 56.7861 40.1313 56.8409Z" fill="#E3A358"/>
<path d="M49.8796 53.2674C50.1986 53.4838 50.537 53.6192 50.7678 53.6223C50.9986 53.6254 51.0868 53.4956 50.9986 53.2823C50.9109 53.0684 50.6601 52.8038 50.3411 52.5874C50.0222 52.371 49.6837 52.2356 49.4524 52.2325C49.2217 52.2295 49.134 52.3592 49.2217 52.5725C49.3099 52.7864 49.5606 53.051 49.8796 53.2674Z" fill="#E3A358"/>
<path d="M55.0003 67C43.9717 67 35 58.0282 35 47.0005C35 35.9718 43.9717 27 55.0003 27C66.0283 27 75 35.9718 75 47.0005C75 58.0282 66.0278 67 55.0003 67ZM55.0003 29.1887C45.1932 29.1887 37.2148 37.1677 37.2148 46.9744C37.2148 56.781 45.1937 64.76 55.0003 64.76C64.8068 64.76 72.7857 56.7815 72.7857 46.9744C72.7857 37.1672 64.8068 29.1887 55.0003 29.1887ZM55.0003 54.3877C50.9265 54.3877 47.6127 51.0738 47.6127 47.0005C47.6127 42.9128 50.9265 39.5872 55.0003 39.5872C59.0735 39.5872 62.3873 42.901 62.3873 46.9749C62.3873 51.0621 59.0735 54.3877 55.0003 54.3877ZM55.0003 41.801C52.1475 41.801 49.827 44.1221 49.827 46.9744C49.827 49.8267 52.148 52.1477 55.0003 52.1477C57.8525 52.1477 60.1735 49.8267 60.1735 46.9744C60.173 44.1221 57.8525 41.801 55.0003 41.801Z" fill="#1D1D38"/>
<path d="M56.079 36.6778L51.7637 33.8265C51.5837 33.7234 51.558 33.4927 51.6606 33.3127L52.1488 32.5937C52.2513 32.4137 52.4826 32.3881 52.6626 32.4906L56.9779 35.3419C57.1579 35.445 57.1836 35.6763 57.0805 35.8558L56.5923 36.5752C56.4903 36.7547 56.259 36.7804 56.079 36.6778Z" fill="#DB79AD"/>
<path d="M38.947 41.1968L40.0772 38.7312C40.1541 38.5512 40.3854 38.4743 40.5654 38.5512L41.3618 38.9107C41.5418 38.9876 41.6187 39.2189 41.5418 39.3989L40.4116 41.8645C40.3341 42.0445 40.1034 42.1214 39.9234 42.0445L39.127 41.685C38.947 41.582 38.8444 41.3768 38.947 41.1968ZM66.9969 40.9912L64.839 39.3214C64.6851 39.1932 64.659 38.962 64.762 38.8076L65.3015 38.1143C65.4297 37.9604 65.661 37.9343 65.8154 38.0373L67.9733 39.7071C68.1271 39.8358 68.1533 40.0666 68.0502 40.2209L67.5107 40.9148C67.3825 41.0943 67.1512 41.1194 66.9969 40.9912Z" fill="#F6B173"/>
<path d="M61.5755 37.5001L60.0858 34.135C60.0088 33.955 60.0858 33.7237 60.2658 33.6468L61.0616 33.2873C61.2416 33.2104 61.4729 33.2873 61.5498 33.4673L63.0396 36.8325C63.1165 37.0125 63.0396 37.2432 62.8596 37.3207L62.0632 37.6801C61.8842 37.7571 61.6786 37.6796 61.5755 37.5001ZM45.0331 43.7678L43.5434 40.4027C43.4665 40.2227 43.5434 39.9919 43.7234 39.9145L44.5198 39.555C44.6998 39.4781 44.9306 39.555 45.008 39.735L46.4977 43.1001C46.5747 43.2801 46.4977 43.5114 46.3177 43.5883L45.5213 43.9478C45.3162 44.0504 45.1106 43.9478 45.0331 43.7678Z" fill="#F7E774"/>
<path d="M45.7233 36.8068L47.2648 33.4673C47.3417 33.2873 47.573 33.2104 47.753 33.2873L48.5494 33.6468C48.7294 33.7237 48.8063 33.955 48.7294 34.135L47.1879 37.4745C47.111 37.6545 46.8797 37.7314 46.6997 37.6545L45.9033 37.295C45.7233 37.2181 45.6464 37.0125 45.7233 36.8068ZM68.9184 45.1812L69.4322 41.5335C69.4579 41.3278 69.6379 41.1996 69.8435 41.2253L70.7168 41.3535C70.9225 41.3791 71.0507 41.5591 71.025 41.7642L70.5112 45.4119C70.4855 45.6171 70.3055 45.7458 70.1004 45.7201L69.2271 45.5919C69.0209 45.5663 68.8927 45.3868 68.9184 45.1812Z" fill="#EC6A69"/>
<path d="M43.8135 57.7456C43.993 57.8379 44.1925 57.8574 44.3371 57.7974C44.4812 57.7374 44.5484 57.6066 44.513 57.4543C44.4776 57.302 44.3448 57.1518 44.1653 57.0595C43.9858 56.9671 43.7864 56.9477 43.6417 57.0077C43.4976 57.0677 43.4305 57.1984 43.4658 57.3507C43.5012 57.5025 43.6335 57.6533 43.8135 57.7456Z" fill="#E3A358"/>
<path d="M62.7051 58.6516C62.7508 58.7716 62.94 58.8264 63.2 58.7951C63.4605 58.7644 63.7533 58.6521 63.9677 58.5013C64.1821 58.3505 64.2862 58.1833 64.2405 58.0633C64.1944 57.9433 64.0056 57.8885 63.7451 57.9192C63.4846 57.95 63.1918 58.0618 62.9775 58.2131C62.7631 58.3644 62.659 58.5316 62.7051 58.6516Z" fill="#E3A358"/>
<path d="M51.1751 57.3027C51.4187 57.4827 51.7079 57.5622 51.9335 57.5114C52.1592 57.4607 52.2874 57.2873 52.2689 57.0566C52.251 56.8263 52.0899 56.573 51.8463 56.393C51.6028 56.213 51.3135 56.1335 51.0879 56.1843C50.8623 56.235 50.7341 56.4084 50.7525 56.6391C50.77 56.8704 50.9315 57.1232 51.1751 57.3027Z" fill="#E3A358"/>
<path d="M58.3713 60.7449C58.4006 60.9557 58.6862 61.09 59.0093 61.0454C59.3329 61.0008 59.5708 60.7936 59.5416 60.5828C59.5123 60.3721 59.2267 60.2372 58.9036 60.2823C58.58 60.3269 58.3421 60.5341 58.3713 60.7449Z" fill="#E3A358"/>
<defs>
<filter id="filter0_dd_3682_16209" x="0" y="0" width="141" height="141" filterUnits="userSpaceOnUse" color-interpolation-filters="sRGB">
<feFlood flood-opacity="0" result="BackgroundImageFix"/>
<feColorMatrix in="SourceAlpha" type="matrix" values="0 0 0 0 0 0 0 0 0 0 0 0 0 0 0 0 0 0 127 0" result="hardAlpha"/>
<feOffset dx="15" dy="15"/>
<feGaussianBlur stdDeviation="15"/>
<feComposite in2="hardAlpha" operator="out"/>
<feColorMatrix type="matrix" values="0 0 0 0 0 0 0 0 0 0 0 0 0 0 0 0 0 0 0.1 0"/>
<feBlend mode="normal" in2="BackgroundImageFix" result="effect1_dropShadow_3682_16209"/>
<feColorMatrix in="SourceAlpha" type="matrix" values="0 0 0 0 0 0 0 0 0 0 0 0 0 0 0 0 0 0 127 0" result="hardAlpha"/>
<feOffset/>
<feGaussianBlur stdDeviation="5"/>
<feComposite in2="hardAlpha" operator="out"/>
<feColorMatrix type="matrix" values="0 0 0 0 0.568627 0 0 0 0 0.909804 0 0 0 0 0.701961 0 0 0 0.15 0"/>
<feBlend mode="normal" in2="effect1_dropShadow_3682_16209" result="effect2_dropShadow_3682_16209"/>
<feBlend mode="normal" in="SourceGraphic" in2="effect2_dropShadow_3682_16209" result="shape"/>
</filter>
</defs>
</svg>
