<svg width="141" height="141" viewBox="0 0 141 141" fill="none" xmlns="http://www.w3.org/2000/svg">
<g filter="url(#filter0_dd_3682_16212)">
<rect x="15" y="15" width="81" height="81" rx="10" fill="white"/>
</g>
<path d="M40.716 75.878V74.94H29.18V79.07C29.18 81.254 29.096 84.348 28.018 86.546C28.27 86.63 28.704 86.896 28.9 87.05C30.02 84.754 30.16 81.366 30.16 79.07V75.878H40.716ZM34.43 81.464H31.924V79.658H34.43V81.464ZM35.396 78.902H31V82.234H35.396V78.902ZM34.388 85.16C34.64 84.544 34.92 83.606 35.172 82.794L34.248 82.542C34.136 83.256 33.828 84.292 33.604 84.936L34.388 85.16ZM32.722 85.006C32.68 84.376 32.4 83.396 32.05 82.626L31.224 82.808C31.546 83.578 31.798 84.6 31.826 85.23L32.722 85.006ZM35.83 77.026H30.636V77.908H35.83V77.026ZM30.384 86.714L36.012 85.972L35.984 85.09C33.87 85.37 31.672 85.622 30.23 85.776L30.384 86.714ZM37.93 83.452C37.79 82.682 37.314 81.492 36.796 80.624L35.97 80.89C36.474 81.8 36.922 83.004 37.048 83.774L37.93 83.452ZM40.814 78.678H39.652V76.424H38.658V78.678H35.844V79.616H38.658V85.846C38.658 86.042 38.588 86.098 38.392 86.112C38.182 86.112 37.524 86.112 36.796 86.098C36.936 86.364 37.076 86.798 37.118 87.05C38.112 87.05 38.742 87.022 39.134 86.882C39.526 86.714 39.652 86.434 39.652 85.846V79.616H40.814V78.678ZM54.352 75.038H42.676V75.976H54.352V75.038ZM44.706 79.924H48.486V81.128H44.678C44.692 80.75 44.706 80.386 44.706 80.036V79.924ZM52.518 77.726V79.112H44.706V77.726H52.518ZM54.702 81.982V81.128H49.508V79.924H53.54V76.928H43.684V80.022C43.684 81.898 43.502 84.432 41.976 86.224C42.214 86.336 42.662 86.63 42.83 86.812C43.964 85.468 44.44 83.648 44.608 81.982H47.59C47.338 84.054 46.624 85.552 43.866 86.294C44.062 86.49 44.342 86.882 44.44 87.106C46.596 86.462 47.646 85.384 48.192 83.928H52.252C52.112 85.356 51.958 85.972 51.734 86.168C51.608 86.266 51.482 86.294 51.216 86.294C50.95 86.294 50.236 86.28 49.494 86.224C49.648 86.462 49.746 86.84 49.774 87.092C50.544 87.148 51.286 87.148 51.65 87.12C52.056 87.092 52.322 87.022 52.574 86.784C52.938 86.434 53.12 85.566 53.316 83.508C53.33 83.382 53.344 83.102 53.344 83.102H48.43C48.514 82.752 48.584 82.374 48.626 81.982H54.702ZM59.84 76.69C59.406 76.116 58.454 75.22 57.698 74.604L57.012 75.234C57.768 75.878 58.678 76.816 59.112 77.418L59.84 76.69ZM62.36 79.658V80.442H66.938V79.658H65.006V78.23H66.574V77.446H65.006V76.27H64.152V77.446H62.668V78.23H64.152V79.658H62.36ZM65.594 82.374V84.054H63.48V82.374H65.594ZM66.406 84.838V81.59H62.668V85.468H63.48V84.838H66.406ZM68.394 74.912H60.876V80.092C60.876 81.422 60.82 82.976 60.442 84.404C60.33 84.194 60.204 83.9 60.134 83.704L59.126 84.474V78.664H56.158V79.658H58.118V84.474C58.118 85.202 57.614 85.748 57.334 85.972C57.516 86.126 57.852 86.49 57.978 86.672C58.174 86.448 58.51 86.154 60.358 84.698C60.148 85.342 59.882 85.958 59.49 86.518C59.7 86.616 60.078 86.896 60.246 87.064C61.604 85.16 61.8 82.248 61.8 80.106V75.85H67.456V85.804C67.456 86.014 67.372 86.084 67.176 86.098C66.98 86.098 66.322 86.112 65.594 86.07C65.734 86.336 65.888 86.77 65.93 87.036C66.924 87.036 67.526 87.022 67.904 86.854C68.268 86.672 68.394 86.392 68.394 85.818V74.912ZM73.266 76.564V82.654H71.516V76.564H73.266ZM74.232 83.662V75.556H70.564V84.74H71.516V83.662H74.232ZM82.772 80.932V79.938H79.132V77.586H82.198V76.592H79.132V74.366H78.11V76.592H75.268V77.586H78.11V79.938H74.736V80.932H77.704C76.85 82.794 75.38 84.586 73.826 85.454C74.078 85.65 74.386 86.014 74.554 86.266C75.912 85.384 77.2 83.844 78.11 82.08V87.064H79.132V82.066C79.93 83.746 81.036 85.328 82.17 86.238C82.338 85.972 82.688 85.58 82.926 85.384C81.624 84.488 80.322 82.71 79.538 80.932H82.772Z" fill="#1D1D38"/>
<g clip-path="url(#clip0_3682_16212)">
<path d="M65.2727 54.0051H43.1242L37.218 63.6027L40.1711 68.7707H68.2258L71.1789 63.6027L65.2727 54.0051Z" fill="#DBF3FE"/>
<path d="M47.8021 24.4695H60.1068M50.263 41.8761V24.4695H57.6458V41.6961L70.0588 61.2021C71.5181 63.4954 70.8421 66.5376 68.5488 67.9969C67.7591 68.4995 66.8424 68.7664 65.9064 68.7664H42.0348C39.3165 68.7664 37.1129 66.5628 37.1129 63.8445C37.1129 62.9034 37.3827 61.982 37.8904 61.1896L50.263 41.8761ZM42.5111 54.0008H65.5208L70.0874 61.2111C71.5418 63.5075 70.8592 66.5482 68.5627 68.0026C67.775 68.5015 66.8617 68.7664 65.9293 68.7664H42.0427C39.3244 68.7664 37.1208 66.5628 37.1208 63.8445C37.1208 62.9022 37.3913 61.9796 37.9003 61.1865L42.5111 54.0008Z" stroke="#1D1D38" stroke-width="2.7" stroke-linecap="round"/>
<circle cx="63.793" cy="63.6055" r="2.21484" fill="#2B4666"/>
<circle cx="58.625" cy="59.9141" r="1.47656" fill="#2B4666"/>
<circle cx="46.8125" cy="62.8672" r="2.95313" fill="#2B4666"/>
</g>
<defs>
<filter id="filter0_dd_3682_16212" x="0" y="0" width="141" height="141" filterUnits="userSpaceOnUse" color-interpolation-filters="sRGB">
<feFlood flood-opacity="0" result="BackgroundImageFix"/>
<feColorMatrix in="SourceAlpha" type="matrix" values="0 0 0 0 0 0 0 0 0 0 0 0 0 0 0 0 0 0 127 0" result="hardAlpha"/>
<feOffset dx="15" dy="15"/>
<feGaussianBlur stdDeviation="15"/>
<feComposite in2="hardAlpha" operator="out"/>
<feColorMatrix type="matrix" values="0 0 0 0 0 0 0 0 0 0 0 0 0 0 0 0 0 0 0.1 0"/>
<feBlend mode="normal" in2="BackgroundImageFix" result="effect1_dropShadow_3682_16212"/>
<feColorMatrix in="SourceAlpha" type="matrix" values="0 0 0 0 0 0 0 0 0 0 0 0 0 0 0 0 0 0 127 0" result="hardAlpha"/>
<feOffset/>
<feGaussianBlur stdDeviation="5"/>
<feComposite in2="hardAlpha" operator="out"/>
<feColorMatrix type="matrix" values="0 0 0 0 0.568627 0 0 0 0 0.909804 0 0 0 0 0.701961 0 0 0 0.15 0"/>
<feBlend mode="normal" in2="effect1_dropShadow_3682_16212" result="effect2_dropShadow_3682_16212"/>
<feBlend mode="normal" in="SourceGraphic" in2="effect2_dropShadow_3682_16212" result="shape"/>
</filter>
<clipPath id="clip0_3682_16212">
<rect width="37.8" height="47.25" fill="white" transform="translate(35 23)"/>
</clipPath>
</defs>
</svg>
