<svg width="141" height="141" viewBox="0 0 141 141" fill="none" xmlns="http://www.w3.org/2000/svg">
<g filter="url(#filter0_dd_3682_16210)">
<rect x="15" y="15" width="81" height="81" rx="10" fill="white"/>
</g>
<path d="M29.208 86.854C29.908 85.566 30.762 83.802 31.392 82.318L30.58 81.73C29.894 83.312 28.956 85.16 28.284 86.252L29.208 86.854ZM30.972 79.56C30.412 79.196 29.362 78.636 28.606 78.258L28.032 79.028C28.802 79.434 29.838 80.036 30.37 80.414L30.972 79.56ZM28.522 75.29C29.264 75.71 30.272 76.354 30.776 76.746L31.392 75.906C30.874 75.542 29.852 74.94 29.124 74.548L28.522 75.29ZM36.74 77.894H35.41V76.018H36.74V77.894ZM39.316 80.764C39.274 80.778 39.218 80.792 39.05 80.792H37.916C37.594 80.792 37.538 80.764 37.538 80.526V78.818H39.316V80.764ZM33.044 85.482V83.872H39.316V85.482H33.044ZM34.598 78.818V79.294C34.598 80.036 34.304 80.932 33.044 81.618V78.818H34.598ZM39.162 81.646H39.316V82.976H33.044V81.786C33.226 81.926 33.436 82.136 33.534 82.276C35.046 81.478 35.438 80.302 35.438 79.308V78.818H36.712V80.54C36.712 81.422 36.95 81.646 37.832 81.646H39.162ZM40.828 76.018V75.066H31.588V76.018H34.472V77.894H32.092V87.064H33.044V86.406H39.316V87.022H40.31V77.894H37.692V76.018H40.828ZM46.554 77.81L46.4 77.852H42.312V78.888H45.952C45.28 81.674 43.796 83.76 41.976 84.894C42.214 85.062 42.634 85.468 42.802 85.72C44.846 84.334 46.54 81.744 47.24 78.076L46.554 77.81ZM53.554 76.55C52.728 77.642 51.356 79.042 50.236 80.022C49.746 79.028 49.354 77.964 49.06 76.858V74.324H47.982V85.594C47.982 85.874 47.884 85.958 47.604 85.972C47.324 85.972 46.428 85.986 45.42 85.944C45.588 86.252 45.798 86.77 45.84 87.078C47.128 87.078 47.94 87.05 48.402 86.868C48.864 86.672 49.06 86.336 49.06 85.594V79.588C50.166 82.458 51.846 84.81 54.268 86C54.436 85.692 54.8 85.272 55.052 85.062C53.204 84.264 51.748 82.738 50.67 80.848C51.874 79.91 53.386 78.44 54.492 77.222L53.554 76.55ZM67.526 77.348C67.372 78.118 67.176 78.93 66.966 79.476L67.848 79.742C68.17 78.944 68.492 77.67 68.73 76.564L68.016 76.354L67.834 76.396H63.9C64.068 75.766 64.208 75.122 64.32 74.45L63.298 74.31C62.976 76.312 62.388 78.244 61.436 79.476C61.688 79.616 62.136 79.91 62.318 80.064C62.836 79.336 63.27 78.398 63.62 77.348H67.526ZM60.456 77.432C60.246 78.104 59.994 78.804 59.742 79.28L60.568 79.574C60.96 78.832 61.394 77.67 61.702 76.648L61.016 76.424L60.834 76.48H58.258C58.426 75.836 58.566 75.178 58.678 74.506L57.712 74.324C57.376 76.396 56.788 78.426 55.864 79.728C56.088 79.868 56.494 80.204 56.662 80.372C57.18 79.588 57.628 78.566 57.978 77.432H60.456ZM59.07 84.866V79.112H58.076V84.754C58.076 85.384 57.586 85.846 57.306 86.028C57.502 86.224 57.754 86.658 57.852 86.882C58.062 86.63 58.454 86.364 61.212 84.586C61.128 84.376 61.002 83.984 60.932 83.718L59.07 84.866ZM65.468 78.412H64.46V79.21C64.46 81.226 64.194 84.236 60.694 86.434C60.932 86.602 61.296 86.938 61.436 87.162C63.592 85.776 64.6 84.096 65.062 82.5C65.734 84.628 66.784 86.238 68.492 87.12C68.618 86.84 68.926 86.462 69.15 86.266C67.064 85.328 65.972 83.102 65.44 80.33C65.454 79.938 65.468 79.588 65.468 79.238V78.412ZM79.454 76.984C79.006 76.466 78.04 75.752 77.256 75.276L76.724 75.976C77.522 76.494 78.474 77.25 78.922 77.782L79.454 76.984ZM78.852 80.33C78.362 79.826 77.326 79.196 76.5 78.762L76.01 79.49C76.85 79.938 77.844 80.652 78.334 81.17L78.852 80.33ZM74.806 75.122C74.596 76.06 74.204 77.446 73.882 78.272L74.554 78.496C74.932 77.712 75.366 76.396 75.702 75.346L74.806 75.122ZM71.894 78.244C71.796 77.404 71.474 76.144 71.068 75.178L70.312 75.36C70.676 76.34 70.998 77.628 71.068 78.468L71.894 78.244ZM73.42 79.938H75.702V78.958H73.42V74.338H72.454V78.958H70.214V79.938H72.174C71.684 81.506 70.802 83.312 69.99 84.292C70.158 84.544 70.41 85.006 70.522 85.3C71.222 84.362 71.936 82.808 72.454 81.31V87.064H73.42V81.324C73.924 82.108 74.582 83.186 74.834 83.704L75.52 82.892C75.212 82.416 73.812 80.568 73.42 80.134V79.938ZM82.968 82.808L82.814 81.856L81.162 82.15V74.296H80.182V82.332L75.674 83.13L75.842 84.096L80.182 83.312V87.064H81.162V83.13L82.968 82.808Z" fill="#1D1D38"/>
<g clip-path="url(#clip0_3682_16210)">
<path d="M68.2266 61.6206H60.4276C56.6963 61.6206 53.6546 58.6094 53.6546 54.9026V51.7902C53.6546 48.0886 56.6904 45.0721 60.4276 45.0721H68.2266C71.9585 45.0721 74.9996 48.0833 74.9996 51.7902V54.9026C74.9996 58.6094 71.9585 61.6206 68.2266 61.6206ZM60.4276 48.7555C58.7424 48.7555 57.368 50.118 57.368 51.7902V54.9026C57.368 56.5747 58.7418 57.9373 60.4276 57.9373H68.2266C69.9124 57.9373 71.2862 56.5747 71.2862 54.9026V51.7902C71.2862 50.118 69.9124 48.7555 68.2266 48.7555H60.4276Z" fill="#1D1D38"/>
<path d="M62.2889 66.7518H43.1091C41.0696 66.7518 39.3956 65.0973 39.3956 63.0685V37.4871C39.3956 35.4642 41.0631 33.8038 43.1091 33.8038H62.2889C64.3284 33.8038 66.0023 35.4577 66.0023 37.4871V63.0685C66.0023 65.0973 64.3343 66.7518 62.2889 66.7518Z" fill="#F4BE67"/>
<path d="M62.2942 68.2825H43.1144C40.2169 68.2825 37.8528 65.9441 37.8528 63.0642V37.4828C37.8528 34.6088 40.2104 32.2645 43.1144 32.2645H62.2942C65.1918 32.2645 67.5553 34.6029 67.5553 37.4828V63.0642C67.5553 65.9441 65.1977 68.2825 62.2942 68.2825ZM43.1144 35.3345C41.9205 35.3345 40.9485 36.2986 40.9485 37.4828V63.0642C40.9485 64.2484 41.9205 65.2125 43.1144 65.2125H62.2942C63.4881 65.2125 64.4601 64.2484 64.4601 63.0642V37.4828C64.4601 36.2986 63.4881 35.3345 62.2942 35.3345H43.1144Z" fill="#1D1D38"/>
<path d="M46.7582 58.1538H44.2445C44.1727 58.1538 44.1122 58.0944 44.1122 58.0167V45.9138C44.1122 45.8425 44.1721 45.7766 44.2445 45.7766H46.7582C46.83 45.7766 46.8964 45.8361 46.8964 45.9138V58.0232C46.8958 58.0944 46.8359 58.1538 46.7582 58.1538ZM54.1311 58.1538H51.6175C51.5457 58.1538 51.4792 58.0944 51.4792 58.0167V45.9138C51.4792 45.8425 51.5392 45.7766 51.6175 45.7766H54.1311C54.2029 45.7766 54.2694 45.8361 54.2694 45.9138V58.0232C54.2694 58.0944 54.2089 58.1538 54.1311 58.1538ZM61.5041 58.1538H58.9904C58.9186 58.1538 58.8522 58.0944 58.8522 58.0167V45.9138C58.8522 45.8425 58.9121 45.7766 58.9904 45.7766H61.5041C61.5759 45.7766 61.6423 45.8361 61.6423 45.9138V58.0232C61.6423 58.0944 61.5824 58.1538 61.5041 58.1538Z" fill="#EAA35E"/>
<path d="M72.1355 37.6848C72.1355 34.7631 69.7476 32.3946 66.8026 32.3946C65.2728 32.3946 63.9169 32.9126 62.9449 33.9355C62.5788 33.5494 61.3487 28.7714 56.1416 29.9791C55.7215 30.0745 55.2901 30.0386 54.8878 30.1339C53.4239 27.7955 50.8141 26.2305 47.8329 26.2305C43.5254 26.2305 39.9858 29.4794 39.5657 33.6448C39.2423 33.5076 38.888 33.4305 38.516 33.4305C37.0402 33.4305 35.8344 34.6265 35.8344 36.0903V47.6936C35.8344 49.1574 37.0402 50.3533 38.516 50.3533C39.9924 50.3533 41.1975 49.1574 41.1975 47.6936V42.9749H41.2094C41.2871 44.3728 42.4573 45.504 43.891 45.504C45.3246 45.504 46.4883 44.3793 46.5725 42.9749H51.9475C52.2834 44.1827 53.3871 45.0756 54.7133 45.0756C56.0034 45.0756 57.0893 44.2245 57.4489 43.0585C58.2589 44.5759 59.8605 45.6176 61.7024 45.6176C63.5739 45.6176 65.2058 44.5347 65.9974 42.9755H66.9753V42.9696C69.8378 42.8737 72.1355 40.547 72.1355 37.6848Z" fill="white"/>
<path d="M38.5192 51.576C36.3592 51.576 34.6016 49.8326 34.6016 47.6902V36.087C34.6016 33.9445 36.3592 32.2012 38.5192 32.2012H38.5613C39.5867 28.0123 43.3607 25.0011 47.8296 25.0011C50.8772 25.0011 53.6852 26.4172 55.485 28.8274C55.6286 28.8157 55.7609 28.8092 55.857 28.7857C59.1207 28.0299 61.6343 29.1312 63.3498 32.0646C64.3462 31.4813 65.5276 31.1723 66.8058 31.1723C70.4297 31.1723 73.3747 34.094 73.3747 37.6879C73.3747 41.1688 70.6629 43.9957 67.1773 44.1858C67.1114 44.1976 67.0455 44.2035 66.9797 44.2035H66.7097C65.5941 45.8515 63.7397 46.8456 61.7061 46.8456C60.1283 46.8456 58.6466 46.2388 57.5429 45.1852C56.7987 45.8874 55.803 46.3041 54.7171 46.3041C53.2117 46.3041 51.8439 45.4771 51.1294 44.2035H47.5661C47.0024 45.6849 45.5681 46.7326 43.8947 46.7326C43.3785 46.7326 42.8866 46.6313 42.4368 46.453V47.6967C42.4368 49.8326 40.6785 51.576 38.5192 51.576ZM38.5192 34.6532C37.7216 34.6532 37.0796 35.2953 37.0796 36.0811V47.6843C37.0796 48.476 37.7276 49.1122 38.5192 49.1122C39.3173 49.1122 39.9593 48.4695 39.9593 47.6843V42.9657C39.9593 42.2871 40.5112 41.7397 41.1954 41.7397C41.8493 41.7397 42.4071 42.2517 42.4427 42.9004C42.4848 43.6679 43.121 44.2688 43.8888 44.2688C44.6567 44.2688 45.2869 43.6679 45.3349 42.9004C45.3711 42.2517 45.9111 41.7397 46.571 41.7397H51.946C52.5037 41.7397 52.9897 42.1087 53.1399 42.6443C53.3381 43.3524 53.9795 43.8462 54.7118 43.8462C55.4256 43.8462 56.0499 43.3824 56.2653 42.6979C56.4154 42.2217 56.8355 41.8827 57.3334 41.8409C57.8313 41.7938 58.3113 42.0493 58.5392 42.4895C59.1634 43.6614 60.3751 44.3936 61.6949 44.3936C63.0448 44.3936 64.2684 43.6378 64.8861 42.4236C65.0962 42.0075 65.5223 41.7456 65.9899 41.7456H66.8236C66.8598 41.7397 66.8954 41.7397 66.9316 41.7397C69.1509 41.6685 70.8973 39.8892 70.8973 37.6873C70.8973 35.4501 69.0613 33.6291 66.8058 33.6291C65.5875 33.6291 64.5622 34.0275 63.8483 34.7833C63.6145 35.0328 63.278 35.1882 62.9428 35.17C62.6004 35.17 62.271 35.0275 62.0432 34.7774C61.8569 34.5808 61.7548 34.3607 61.5934 34.0275C60.6991 32.1353 59.4578 30.4755 56.4279 31.177C56.1223 31.2483 55.8398 31.2665 55.5942 31.2842C55.4322 31.2959 55.282 31.3083 55.18 31.3318C54.6643 31.4566 54.1184 31.2365 53.8365 30.7845C52.5346 28.7021 50.291 27.4643 47.8313 27.4643C44.1843 27.4643 41.1604 30.1776 40.7942 33.7721C40.7521 34.1588 40.5302 34.5096 40.1943 34.7062C39.8525 34.9028 39.4383 34.9322 39.0787 34.7774C38.9031 34.6944 38.7108 34.6532 38.5192 34.6532Z" fill="#1D1D38"/>
<path d="M44.3447 60.8835C44.3447 61.2067 44.5186 61.5051 44.8004 61.6669C45.0823 61.8282 45.43 61.8282 45.7125 61.6669C45.9943 61.5057 46.1682 61.2073 46.1682 60.8835C46.1682 60.5604 45.9943 60.262 45.7125 60.1001C45.4306 59.9389 45.0829 59.9389 44.8004 60.1001C44.518 60.262 44.3447 60.5604 44.3447 60.8835Z" fill="#F7D5A4"/>
<path d="M58.3606 59.8832C58.3606 60.2063 58.5344 60.5047 58.8163 60.6666C59.0982 60.8278 59.4459 60.8278 59.7284 60.6666C60.0102 60.5053 60.1847 60.2063 60.1847 59.8832C60.1847 59.56 60.0108 59.2616 59.7284 59.0998C59.4465 58.9385 59.0988 58.9385 58.8163 59.0998C58.5339 59.261 58.3606 59.56 58.3606 59.8832Z" fill="#F7D5A4"/>
<path d="M51.9708 60.8835C51.9708 61.2067 52.1447 61.5051 52.4266 61.6669C52.7084 61.8282 53.0562 61.8282 53.3386 61.6669C53.6205 61.5057 53.7949 61.2073 53.7949 60.8835C53.7949 60.5604 53.6211 60.262 53.3386 60.1001C53.0568 59.9389 52.709 59.9389 52.4266 60.1001C52.1441 60.262 51.9708 60.5604 51.9708 60.8835Z" fill="#F7D5A4"/>
<path d="M55.2855 52.7537C55.2855 53.0768 55.4593 53.3753 55.7418 53.5371C56.0237 53.6984 56.3714 53.6984 56.6533 53.5371C56.9357 53.3758 57.1096 53.0768 57.1096 52.7537C57.1096 52.4306 56.9357 52.1322 56.6533 51.9703C56.3714 51.809 56.0237 51.809 55.7418 51.9703C55.4593 52.1322 55.2855 52.4306 55.2855 52.7537Z" fill="#F7D5A4"/>
<path d="M47.3136 53.9266C47.4091 54.1049 47.5931 54.2197 47.7966 54.2261C48.0001 54.2332 48.1918 54.1326 48.2998 53.9613C48.4078 53.79 48.4155 53.5746 48.32 53.3962C48.225 53.2179 48.0405 53.1037 47.8369 53.0967C47.6334 53.0896 47.4417 53.1902 47.3337 53.3615C47.2257 53.5322 47.2186 53.7482 47.3136 53.9266Z" fill="#F7D5A4"/>
<path d="M49.5553 48.7712C49.6224 48.8972 49.7529 48.9778 49.8965 48.9825C50.0395 48.9878 50.1754 48.916 50.2514 48.796C50.3273 48.6753 50.3327 48.5229 50.2656 48.3975C50.1986 48.2715 50.0686 48.1909 49.925 48.1862C49.7814 48.1815 49.6461 48.2527 49.5702 48.3734C49.4936 48.4934 49.4883 48.6453 49.5553 48.7712Z" fill="#F7D5A4"/>
<path d="M55.5325 49.1823C55.6583 49.4171 55.9526 49.5072 56.1893 49.3824C56.4267 49.2576 56.5163 48.9657 56.3911 48.7309C56.2653 48.496 55.971 48.4065 55.7342 48.5307C55.4969 48.6561 55.4067 48.9475 55.5325 49.1823Z" fill="#F7D5A4"/>
<path d="M62.6406 50.5746C62.7219 50.727 62.8792 50.8241 63.0525 50.8306C63.2257 50.8365 63.3895 50.7505 63.4821 50.6046C63.574 50.4586 63.5806 50.275 63.4993 50.1225C63.418 49.9701 63.2613 49.873 63.0875 49.8665C62.9142 49.8606 62.7504 49.9465 62.6584 50.0925C62.5659 50.2385 62.5593 50.4221 62.6406 50.5746Z" fill="#F7D5A4"/>
<path d="M42.4078 53.5785C42.5336 53.8133 42.8273 53.9028 43.0647 53.7786C43.3014 53.6538 43.3916 53.3619 43.2658 53.127C43.14 52.8916 42.8457 52.8027 42.6089 52.9269C42.3722 53.0517 42.282 53.3436 42.4078 53.5785Z" fill="#F7D5A4"/>
</g>
<defs>
<filter id="filter0_dd_3682_16210" x="0" y="0" width="141" height="141" filterUnits="userSpaceOnUse" color-interpolation-filters="sRGB">
<feFlood flood-opacity="0" result="BackgroundImageFix"/>
<feColorMatrix in="SourceAlpha" type="matrix" values="0 0 0 0 0 0 0 0 0 0 0 0 0 0 0 0 0 0 127 0" result="hardAlpha"/>
<feOffset dx="15" dy="15"/>
<feGaussianBlur stdDeviation="15"/>
<feComposite in2="hardAlpha" operator="out"/>
<feColorMatrix type="matrix" values="0 0 0 0 0 0 0 0 0 0 0 0 0 0 0 0 0 0 0.1 0"/>
<feBlend mode="normal" in2="BackgroundImageFix" result="effect1_dropShadow_3682_16210"/>
<feColorMatrix in="SourceAlpha" type="matrix" values="0 0 0 0 0 0 0 0 0 0 0 0 0 0 0 0 0 0 127 0" result="hardAlpha"/>
<feOffset/>
<feGaussianBlur stdDeviation="5"/>
<feComposite in2="hardAlpha" operator="out"/>
<feColorMatrix type="matrix" values="0 0 0 0 0.568627 0 0 0 0 0.909804 0 0 0 0 0.701961 0 0 0 0.15 0"/>
<feBlend mode="normal" in2="effect1_dropShadow_3682_16210" result="effect2_dropShadow_3682_16210"/>
<feBlend mode="normal" in="SourceGraphic" in2="effect2_dropShadow_3682_16210" result="shape"/>
</filter>
<clipPath id="clip0_3682_16210">
<rect width="40.3984" height="43.284" fill="white" transform="translate(34.6016 25)"/>
</clipPath>
</defs>
</svg>
