<svg width="141" height="141" viewBox="0 0 141 141" fill="none" xmlns="http://www.w3.org/2000/svg">
<g filter="url(#filter0_dd_3682_16216)">
<rect x="15" y="15" width="81" height="81" rx="10" fill="white"/>
</g>
<path d="M31.406 77.194C30.916 76.578 29.838 75.696 28.97 75.094L28.256 75.808C29.138 76.452 30.174 77.376 30.664 78.006L31.406 77.194ZM28.942 85.958C29.81 84.698 30.832 83.06 31.616 81.632L30.846 80.946C29.992 82.458 28.83 84.194 28.046 85.23L28.942 85.958ZM39.834 80.946H32.12V81.926H34.752V87.05H35.774V81.926H38.826V84.502C38.826 84.67 38.77 84.726 38.56 84.726C38.35 84.74 37.706 84.74 36.922 84.712C37.062 85.006 37.202 85.412 37.244 85.72C38.238 85.72 38.91 85.706 39.316 85.552C39.736 85.37 39.834 85.062 39.834 84.53V80.946ZM33.478 78.454V79.42H38.378V78.454H33.478ZM35.34 74.366C34.486 75.99 32.638 78.006 30.72 79.154C30.916 79.378 31.182 79.77 31.308 80.022C33.24 78.804 34.976 76.928 35.9 75.388C36.908 76.914 38.784 78.678 40.436 79.714C40.618 79.392 40.87 79.028 41.08 78.762C39.386 77.866 37.51 76.102 36.362 74.366H35.34ZM50.684 76.466C50.516 75.934 50.138 75.15 49.746 74.562L48.99 74.842C49.368 75.444 49.732 76.27 49.886 76.788L50.684 76.466ZM46.456 76.326C46.218 76.858 45.924 77.446 45.644 77.866H43.586C43.922 77.376 44.188 76.844 44.44 76.326H46.456ZM47.002 80.47H45.672V78.692H47.002V80.47ZM47.002 83.074H45.672V81.268H47.002V83.074ZM43.628 80.47V78.692H44.93V80.47H43.628ZM44.93 81.268V83.074H43.628V81.268H44.93ZM42.802 78.902V83.9H47.856V77.866H46.54C46.946 77.264 47.366 76.522 47.674 75.864L47.1 75.43L46.918 75.486H44.79C44.944 75.122 45.07 74.758 45.182 74.408L44.244 74.282C43.88 75.542 43.166 77.138 42.046 78.356C42.284 78.482 42.592 78.748 42.746 78.958L42.802 78.902ZM42.368 86.406C43.922 86.238 46.05 85.986 48.122 85.72L48.108 84.866C45.938 85.09 43.684 85.328 42.214 85.454L42.368 86.406ZM54.912 82.934H52.112V80.918H54.408V80.022H52.112V77.964H54.66V77.04H52.966C53.358 76.368 53.792 75.5 54.142 74.744L53.176 74.492C52.91 75.248 52.448 76.312 52.014 77.04H48.444V77.964H51.118V80.022H48.724V80.918H51.118V82.934H48.248V83.872H51.118V87.12H52.112V83.872H54.912V82.934ZM66.364 83.018C65.65 83.508 64.796 84.012 64.068 84.376C63.55 83.984 63.13 83.536 62.794 83.018H66.364ZM59.56 80.932H65.454V82.164H59.56V80.932ZM59.56 78.958H65.454V80.134H59.56V78.958ZM62.99 78.104V76.718H61.94V78.104H59.056C60.442 77.194 61.674 76.144 62.444 75.206C63.298 76.2 64.628 77.236 66.014 78.104H62.99ZM67.246 82.388C67.022 82.556 66.756 82.752 66.476 82.948V78.384C67.106 78.748 67.736 79.084 68.338 79.35C68.52 79.07 68.772 78.692 69.01 78.44C66.84 77.628 64.418 76.018 62.892 74.268H61.87C60.75 75.822 58.412 77.572 56.046 78.594C56.27 78.818 56.536 79.196 56.662 79.434C57.292 79.14 57.936 78.804 58.538 78.426V85.832C57.95 85.888 57.418 85.93 56.956 85.972L57.11 86.938C58.706 86.798 60.988 86.574 63.172 86.336L63.158 85.412L59.56 85.748V83.018H61.744C62.934 85.244 65.16 86.546 68.17 87.064C68.31 86.798 68.576 86.378 68.8 86.168C67.26 85.944 65.916 85.524 64.838 84.894C65.888 84.362 67.092 83.662 68.03 82.99L67.246 82.388ZM79.3 78.524H73.742V75.878H79.3V78.524ZM80.35 74.884H72.734V79.518H80.35V74.884ZM74.624 81.996V85.314H71.698V81.996H74.624ZM70.704 87.078H71.698V86.322H74.624V86.952H75.646V80.988H70.704V87.078ZM78.18 85.314V81.996H81.358V85.314H78.18ZM77.172 80.988V87.078H78.18V86.322H81.358V86.98H82.38V80.988H77.172Z" fill="#1D1D38"/>
<g clip-path="url(#clip0_3682_16216)">
<path fill-rule="evenodd" clip-rule="evenodd" d="M63.4469 57.4513L63.6438 57.021C61.7708 52.6507 57.0028 50.2857 52.39 51.4389L51.7274 51.6045C51.7274 54.596 54.1525 57.021 57.1439 57.021C54.2721 57.021 51.9223 59.256 51.7389 62.0814L51.7274 62.4376L52.39 62.6032C56.8491 63.718 61.4531 61.5452 63.4469 57.4513ZM63.6438 57.021L64.9171 50.0179C65.4159 47.2741 63.6579 44.6264 60.9355 44.0214C57.6909 43.3004 54.51 42.3178 51.424 41.0834L50.6441 40.7715C47.3727 39.4629 45.2276 36.2945 45.2276 32.7711V32.105H51.7274H58.3091C61.8264 32.105 65.3045 32.8431 68.5186 34.2716L69.3119 34.6242C71.8879 35.7691 73.7931 38.0366 74.4768 40.7715C75.1759 43.5677 74.8516 46.5217 73.5626 49.0997L73.3935 49.4379C71.9946 52.2358 69.6492 54.4473 66.7739 55.6795L63.6438 57.021ZM66.471 33.4669L60.3773 39.0139L59.9916 39.3458C57.5018 41.3733 54.1387 41.9767 51.0987 40.9398L51.4757 41.0573" fill="#FCA573"/>
<path d="M63.6438 57.021L63.4469 57.4513C61.4531 61.5452 56.8491 63.718 52.39 62.6032L51.7274 62.4376L51.7389 62.0814C51.9223 59.256 54.2721 57.021 57.1439 57.021C54.1525 57.021 51.7274 54.596 51.7274 51.6045L52.39 51.4389C57.0028 50.2857 61.7708 52.6507 63.6438 57.021ZM63.6438 57.021L64.9171 50.0179C65.4159 47.2741 63.6579 44.6264 60.9355 44.0214C57.6909 43.3004 54.51 42.3178 51.424 41.0834L50.6441 40.7715C47.3727 39.4629 45.2276 36.2945 45.2276 32.7711V32.105M63.6438 57.021L66.7739 55.6795C69.6492 54.4473 71.9946 52.2358 73.3935 49.4379L73.5626 49.0997C74.8516 46.5217 75.1759 43.5677 74.4768 40.7715C73.7931 38.0366 71.8879 35.7691 69.3119 34.6242L68.5186 34.2716C65.3045 32.8431 61.8264 32.105 58.3091 32.105H51.7274M45.2276 32.105C42.8344 32.105 40.8944 30.165 40.8944 27.7718V25.6052M45.2276 32.105H51.7274M51.7274 32.105H40.8944C38.5012 32.105 36.5612 30.165 36.5612 27.7718V23.4386M74.8025 44.616L74.5635 44.9997C72.8416 47.6309 69.8076 49.2138 66.5554 49.0105L64.9987 48.9123M73.46 38.3056L69.5428 41.787L69.1204 42.1416C66.9662 43.8492 64.1898 44.57 61.477 44.1258M66.471 33.4669L60.3773 39.0139L59.9916 39.3458C57.5018 41.3733 54.1387 41.9767 51.0987 40.9398L51.4757 41.0573" stroke="#1D1D38" stroke-width="2" stroke-linecap="round"/>
<path d="M53.8987 36.4324H54.1153" stroke="black" stroke-width="3.04679" stroke-linecap="round"/>
</g>
<defs>
<filter id="filter0_dd_3682_16216" x="0" y="0" width="141" height="141" filterUnits="userSpaceOnUse" color-interpolation-filters="sRGB">
<feFlood flood-opacity="0" result="BackgroundImageFix"/>
<feColorMatrix in="SourceAlpha" type="matrix" values="0 0 0 0 0 0 0 0 0 0 0 0 0 0 0 0 0 0 127 0" result="hardAlpha"/>
<feOffset dx="15" dy="15"/>
<feGaussianBlur stdDeviation="15"/>
<feComposite in2="hardAlpha" operator="out"/>
<feColorMatrix type="matrix" values="0 0 0 0 0 0 0 0 0 0 0 0 0 0 0 0 0 0 0.1 0"/>
<feBlend mode="normal" in2="BackgroundImageFix" result="effect1_dropShadow_3682_16216"/>
<feColorMatrix in="SourceAlpha" type="matrix" values="0 0 0 0 0 0 0 0 0 0 0 0 0 0 0 0 0 0 127 0" result="hardAlpha"/>
<feOffset/>
<feGaussianBlur stdDeviation="5"/>
<feComposite in2="hardAlpha" operator="out"/>
<feColorMatrix type="matrix" values="0 0 0 0 0.568627 0 0 0 0 0.909804 0 0 0 0 0.701961 0 0 0 0.15 0"/>
<feBlend mode="normal" in2="effect1_dropShadow_3682_16216" result="effect2_dropShadow_3682_16216"/>
<feBlend mode="normal" in="SourceGraphic" in2="effect2_dropShadow_3682_16216" result="shape"/>
</filter>
<clipPath id="clip0_3682_16216">
<rect width="40.767" height="42.0024" fill="white" transform="translate(35.1172 22)"/>
</clipPath>
</defs>
</svg>
