<svg width="17" height="26" viewBox="0 0 17 26" fill="none" xmlns="http://www.w3.org/2000/svg">
<path fill-rule="evenodd" clip-rule="evenodd" d="M14.5255 6.622C13.3611 3.09054 9.64828 1.22614 6.24924 2.40892C2.84011 3.59523 0.985802 7.41406 2.15312 10.9542C2.28739 11.3614 2.06614 11.8003 1.65895 11.9346C1.25175 12.0689 0.812813 11.8476 0.678546 11.4404C-0.744599 7.12445 1.50061 2.41735 5.73896 0.942497C9.98739 -0.535862 14.5741 1.81111 16.0001 6.13578C17.3049 10.0929 15.526 14.3789 11.9545 16.2009L16.5259 22.3589C17.4865 23.6529 16.5725 25.4994 14.9713 25.4994H2.19835C0.493845 25.4994 -0.384701 23.4406 0.78563 22.1888L1.62401 21.292C1.91757 20.978 2.40754 20.9639 2.71838 21.2604C3.02922 21.5569 3.04323 22.0519 2.74967 22.3659L1.91129 23.2626C1.67349 23.517 1.852 23.9353 2.19835 23.9353H14.9713C15.2966 23.9353 15.4824 23.5601 15.2872 23.2972L10.2946 16.5718C10.1396 16.4819 10.0148 16.3381 9.95134 16.1556C9.81043 15.7507 10.0245 15.3082 10.4294 15.1673C13.8385 13.981 15.6929 10.1622 14.5255 6.622ZM4.32067 20.0083C5.24115 20.0083 5.98734 19.2621 5.98734 18.3416C5.98734 17.4212 5.24115 16.675 4.32067 16.675C3.4002 16.675 2.65401 17.4212 2.65401 18.3416C2.65401 19.2621 3.4002 20.0083 4.32067 20.0083Z" fill="#E47F10"/>
</svg>
