<svg width="100" height="100" viewBox="0 0 100 100" fill="none" xmlns="http://www.w3.org/2000/svg">
<ellipse cx="56.2869" cy="56.4739" rx="2.39501" ry="2.39501" fill="#1D1D38"/>
<path d="M37.6288 38.3664C37.6288 35.514 39.9412 33.2017 42.7936 33.2017H57.2932C60.1456 33.2017 62.4579 35.514 62.4579 38.3664V59.0253C62.4579 61.8776 60.1456 64.19 57.2932 64.19H37.6288V38.3664Z" stroke="#1D1D38" stroke-width="4.42689"/>
<line x1="45.325" y1="41.1474" x2="54.7562" y2="41.1474" stroke="#1D1D38" stroke-width="4.42689" stroke-linecap="round"/>
<line x1="45.325" y1="48.8476" x2="54.7562" y2="48.8476" stroke="#1D1D38" stroke-width="4.42689" stroke-linecap="round"/>
<line x1="45.325" y1="56.5449" x2="50.1369" y2="56.5449" stroke="#1D1D38" stroke-width="4.42689" stroke-linecap="round"/>
<path d="M68.5385 81.9788C50.9718 92.121 28.5093 86.1022 18.3671 68.5354C8.22497 50.9687 14.2438 28.5062 31.8105 18.364C49.3773 8.22185 71.8398 14.2407 81.9819 31.8074" stroke="url(#paint0_linear_3454_19142)" stroke-width="5.76418" stroke-linecap="round" stroke-linejoin="round"/>
<path d="M76.0756 65.134C67.814 79.4434 49.5166 84.3462 35.2071 76.0846C20.8977 67.8231 15.9949 49.5256 24.2564 35.2162C32.518 20.9067 50.8154 16.004 65.1249 24.2655" stroke="url(#paint1_linear_3454_19142)" stroke-width="1.15284" stroke-linecap="round" stroke-linejoin="round"/>
<circle cx="75.3901" cy="65.9343" r="9.27089" transform="rotate(60 75.3901 65.9343)" fill="url(#paint2_linear_3454_19142)"/>
<circle cx="68.601" cy="26.9016" r="1.27056" transform="rotate(60 68.601 26.9016)" fill="url(#paint3_linear_3454_19142)"/>
<path d="M24.9735 78.8243V80.4403H29.5175V90.6803C29.5175 91.0643 29.3255 91.2723 28.9415 91.2723C28.3175 91.2723 27.6775 91.2243 27.0055 91.1603L27.3735 92.7923H29.5175C30.6375 92.7923 31.2135 92.2163 31.2135 91.0963V80.4403H34.3975V78.8243H24.9735ZM21.7575 78.1683L20.5735 79.3203C21.7095 80.1523 22.5895 80.9363 23.1975 81.6723L24.3495 80.5043C23.6295 79.7363 22.7655 78.9523 21.7575 78.1683ZM19.5335 82.7923V84.3923H21.7255V90.0723C21.7255 90.4083 21.5815 90.6963 21.2935 90.9363L21.9335 92.4403C23.1655 91.6883 24.3335 90.8403 25.4215 89.8803L24.9735 88.1363C24.3975 88.6643 23.8535 89.1283 23.3415 89.5443V82.7923H19.5335ZM37.1655 80.4403V87.4003H42.0775V88.5843H35.7415V90.1523H42.0775V92.9523H43.7415V90.1523H50.0775V88.5843H43.7415V87.4003H48.6535V80.4403H45.8055C46.2215 79.8643 46.6215 79.2083 46.9735 78.4883L45.3575 77.9123C44.9895 78.8083 44.5575 79.6403 44.0615 80.4403H40.9575L41.9015 79.9603C41.4215 79.2403 40.9095 78.5843 40.3655 77.9923L38.9735 78.6643C39.4535 79.1923 39.9175 79.7843 40.3655 80.4403H37.1655ZM47.0375 85.9283H43.7415V84.6003H47.0375V85.9283ZM42.0775 85.9283H38.7815V84.6003H42.0775V85.9283ZM38.7815 83.1923V81.8963H42.0775V83.1923H38.7815ZM43.7415 81.8963H47.0375V83.1923H43.7415V81.8963ZM58.0455 77.9923V80.7283H52.3815V88.5363H54.0615V87.6563H58.0455V93.0003H59.7735V87.6563H63.7735V88.5363H65.4535V80.7283H59.7735V77.9923H58.0455ZM54.0615 86.0243V82.3603H58.0455V86.0243H54.0615ZM59.7735 86.0243V82.3603H63.7735V86.0243H59.7735ZM77.0535 92.3603C77.7255 92.3603 78.2215 92.1523 78.5415 91.7363C78.8935 91.3043 79.1335 89.9443 79.2615 87.6563L77.6775 87.1283C77.6135 88.8723 77.5175 89.9123 77.3575 90.2483C77.2295 90.5683 77.0215 90.7283 76.7335 90.7283H74.0135C73.4855 90.7283 73.2295 90.5043 73.2295 90.0563V81.4163H71.5495V90.4243C71.5495 91.7043 72.1895 92.3603 73.5015 92.3603H77.0535ZM69.1015 82.9523C68.7815 85.3843 68.2215 87.6883 67.4375 89.8643L68.8935 90.7763C69.6775 88.6803 70.2855 86.1843 70.7175 83.2883L69.1015 82.9523ZM80.0295 82.5523L78.4295 83.0803C79.3255 85.1283 80.1575 87.4803 80.8935 90.1683L82.4295 89.4643C81.7415 87.0163 80.9415 84.7123 80.0295 82.5523ZM74.3815 77.9923L73.0055 78.8563C74.3335 80.4563 75.3895 81.9283 76.1895 83.2563L77.5815 82.2963C76.8455 81.0643 75.7735 79.6243 74.3815 77.9923Z" fill="#1D1D38"/>
<defs>
<linearGradient id="paint0_linear_3454_19142" x1="68.5385" y1="81.9788" x2="31.8105" y2="18.364" gradientUnits="userSpaceOnUse">
<stop stop-color="#91E8B3"/>
<stop offset="1" stop-color="#C0E57B"/>
<stop offset="1" stop-color="#C0E57B"/>
</linearGradient>
<linearGradient id="paint1_linear_3454_19142" x1="76.0756" y1="65.134" x2="24.2564" y2="35.2162" gradientUnits="userSpaceOnUse">
<stop stop-color="#91E8B3"/>
<stop offset="1" stop-color="#C0E57B"/>
<stop offset="1" stop-color="#C0E57B"/>
</linearGradient>
<linearGradient id="paint2_linear_3454_19142" x1="84.661" y1="65.9343" x2="66.1192" y2="65.9343" gradientUnits="userSpaceOnUse">
<stop stop-color="#91E8B3"/>
<stop offset="1" stop-color="#C0E57B"/>
<stop offset="1" stop-color="#C0E57B"/>
</linearGradient>
<linearGradient id="paint3_linear_3454_19142" x1="69.8715" y1="26.9016" x2="67.3304" y2="26.9016" gradientUnits="userSpaceOnUse">
<stop stop-color="#91E8B3"/>
<stop offset="1" stop-color="#C0E57B"/>
<stop offset="1" stop-color="#C0E57B"/>
</linearGradient>
</defs>
</svg>
