<svg width="29" height="26" viewBox="0 0 29 26" fill="none" xmlns="http://www.w3.org/2000/svg">
<path fill-rule="evenodd" clip-rule="evenodd" d="M4.54472 0.499634C3.59762 0.499634 2.74361 1.06965 2.3803 1.9443L0.433195 6.63176C-0.207941 8.17524 0.926288 9.87456 2.59762 9.87456H2.59854V20.4628H1.81792C0.954986 20.4628 0.255436 21.1624 0.255436 22.0253V23.935C0.255436 24.7979 0.954988 25.4975 1.81792 25.4975H26.8177C27.6807 25.4975 28.3802 24.7979 28.3802 23.935V22.0253C28.3802 21.1624 27.6807 20.4628 26.8177 20.4628L26.0359 20.4628V9.87456H26.0405C27.7118 9.87456 28.8461 8.17523 28.2049 6.63176L26.2578 1.9443C25.8945 1.06965 25.0405 0.499634 24.0934 0.499634H4.54472ZM24.4734 9.87456H4.16102V20.4628H6.50539V17.6849C6.50539 17.2534 6.85516 16.9037 7.28663 16.9037C7.7181 16.9037 8.06788 17.2534 8.06788 17.6849V20.4628L10.4116 20.4627V14.5166C10.4116 13.8694 9.88692 13.3447 9.2397 13.3447C8.59251 13.3448 8.06788 13.8694 8.06788 14.5166V15.3413H6.50539V14.5166C6.50539 13.0065 7.72954 11.7823 9.23964 11.7823C10.7498 11.7822 11.9741 13.0064 11.9741 14.5166V20.4627L24.4734 20.4628V9.87456ZM3.82325 2.54368C3.94435 2.25213 4.22902 2.06212 4.54472 2.06212H7.72563L6.6236 8.31207H2.59762C2.04051 8.31207 1.66244 7.74563 1.87615 7.23114L3.82325 2.54368ZM8.21019 8.31207H13.5379V2.06212H9.31222L8.21019 8.31207ZM15.1004 8.31207V2.06212H19.3025L20.4045 8.31207H15.1004ZM21.9911 8.31207L20.889 2.06212H24.0934C24.4091 2.06212 24.6938 2.25213 24.8149 2.54368L26.762 7.23114C26.9757 7.74563 26.5976 8.31207 26.0405 8.31207H21.9911ZM1.81792 22.0253V23.935H26.8177V22.0253L1.81792 22.0253ZM22.1331 13.7816C22.1331 14.6445 21.4336 15.3441 20.5707 15.3441C19.7077 15.3441 19.0082 14.6445 19.0082 13.7816C19.0082 12.9186 19.7077 12.2191 20.5707 12.2191C21.4336 12.2191 22.1331 12.9186 22.1331 13.7816Z" fill="#E47F10"/>
</svg>
