<svg width="50" height="50" viewBox="0 0 50 50" fill="none" xmlns="http://www.w3.org/2000/svg">
<circle cx="20.5" cy="18.5" r="11.5" fill="#E47F10"/>
<path fill-rule="evenodd" clip-rule="evenodd" d="M20.2004 7.43921C18.2418 6.56649 16.0535 6.35029 13.962 6.82285C11.8704 7.29541 9.98765 8.43141 8.59447 10.0614C7.20129 11.6915 6.37235 13.7282 6.23126 15.8678C6.09017 18.0074 6.64451 20.1353 7.81159 21.9342C8.97867 23.733 10.696 25.1064 12.7074 25.8495C14.7188 26.5926 16.9165 26.6656 18.9728 26.0577C21.029 25.4497 22.8337 24.1933 24.1176 22.4759C25.4015 20.7585 26.0958 18.672 26.097 16.5277V15.5119C26.097 14.9017 26.5917 14.4071 27.2019 14.4071C27.8121 14.4071 28.3067 14.9017 28.3067 15.5119V16.5284C28.3052 19.1492 27.4566 21.6999 25.8874 23.7989C24.3182 25.898 22.1125 27.4336 19.5993 28.1767C17.0861 28.9198 14.4 28.8305 11.9416 27.9223C9.48321 27.0141 7.38429 25.3355 5.95786 23.1369C4.53143 20.9383 3.85391 18.3375 4.02634 15.7224C4.19878 13.1073 5.21194 10.618 6.91472 8.62574C8.61749 6.63349 10.9187 5.24504 13.475 4.66747C16.0313 4.08989 18.7059 4.35414 21.0998 5.4208C21.6572 5.66915 21.9077 6.32231 21.6593 6.87968C21.411 7.43705 20.7578 7.68756 20.2004 7.43921Z" fill="#1D1D38"/>
<path fill-rule="evenodd" clip-rule="evenodd" d="M22.7495 10.25C23.181 10.6815 23.181 11.381 22.7495 11.8125L18.062 16.5L22.7495 21.1875C23.181 21.619 23.181 22.3185 22.7495 22.75C22.318 23.1815 21.6185 23.1815 21.187 22.75L16.4995 18.0625L11.812 22.75C11.3806 23.1815 10.681 23.1815 10.2495 22.75C9.81806 22.3185 9.81806 21.619 10.2495 21.1875L14.937 16.5L10.2495 11.8125C9.81806 11.381 9.81806 10.6815 10.2495 10.25C10.681 9.81853 11.3806 9.81853 11.812 10.25L16.4995 14.9375L21.187 10.25C21.6185 9.81853 22.318 9.81853 22.7495 10.25Z" fill="#1D1D38"/>
<path d="M9.276 37.208V33.784H3.172V34.584H8.428V36.408H4.34V35.352H3.508V39.496C3.508 40.216 3.844 40.576 4.532 40.576H8.98C9.3 40.56 9.564 40.464 9.756 40.288C9.916 40.112 10.052 39.512 10.156 38.488L9.34 38.232C9.292 39.048 9.22 39.52 9.108 39.632C8.996 39.728 8.876 39.776 8.748 39.776H4.772C4.484 39.776 4.34 39.632 4.34 39.344V37.208H9.276ZM14.924 38.464C14.716 38.512 14.5 38.568 14.276 38.624V34.456H14.708V34.92H15.028C15.14 36.2 15.468 37.376 16.012 38.464C15.612 39.128 15.1 39.696 14.492 40.168L15.06 40.824C15.604 40.392 16.076 39.88 16.476 39.28C16.82 39.824 17.228 40.336 17.7 40.824L18.26 40.168C17.732 39.672 17.284 39.12 16.924 38.52C17.436 37.504 17.78 36.288 17.948 34.88V34.12H14.796V33.672H10.924V34.456H11.476V39.136C11.26 39.168 11.044 39.192 10.82 39.216L11.028 40.04C11.86 39.912 12.676 39.776 13.46 39.616V40.808H14.276V39.448C14.484 39.4 14.7 39.344 14.924 39.296V38.464ZM15.796 34.92H17.164C17.036 35.92 16.796 36.816 16.452 37.608C16.1 36.792 15.876 35.896 15.796 34.92ZM13.46 38.8C13.076 38.88 12.692 38.952 12.292 39.016V37.928H13.46V38.8ZM12.292 37.176V36.192H13.46V37.176H12.292ZM12.292 35.44V34.456H13.46V35.44H12.292ZM23.14 33.456V35.576H21.484V40.784H22.324V39.112H24.828V39.632C24.828 39.864 24.708 39.984 24.484 39.984L23.676 39.96L23.892 40.768H24.764C25.356 40.768 25.66 40.448 25.66 39.816V35.576H23.988V33.456H23.14ZM22.324 37.752H24.828V38.408H22.324V37.752ZM24.828 37.048H22.324V36.384H24.828V37.048ZM21.772 33.632L21.084 33.96C21.396 34.36 21.684 34.8 21.948 35.288L22.604 34.96C22.332 34.48 22.06 34.032 21.772 33.632ZM25.3 33.632C25.092 34.096 24.812 34.568 24.46 35.048L25.1 35.384C25.46 34.92 25.756 34.448 25.98 33.952L25.3 33.632ZM20.228 37.568C19.86 38.536 19.428 39.48 18.932 40.408L19.7 40.752C20.164 39.848 20.58 38.88 20.964 37.856L20.228 37.568ZM19.668 33.496L19.076 34.072C19.684 34.504 20.148 34.904 20.476 35.28L21.068 34.68C20.684 34.288 20.22 33.896 19.668 33.496ZM19.444 35.368L18.852 35.944C19.42 36.384 19.86 36.792 20.172 37.16L20.764 36.568C20.404 36.168 19.964 35.768 19.444 35.368Z" fill="#1D1D38"/>
</svg>
