<svg width="50" height="50" viewBox="0 0 50 50" fill="none" xmlns="http://www.w3.org/2000/svg">
<g opacity="0.3">
<path d="M17.9593 23H4V7H25V16" stroke="#1D1D38" stroke-width="2"/>
<line x1="4" y1="12" x2="25" y2="12" stroke="#1D1D38" stroke-width="2"/>
<path fill-rule="evenodd" clip-rule="evenodd" d="M26.8357 16.2881C25.7053 15.7845 24.4423 15.6597 23.2352 15.9324C22.0281 16.2051 20.9415 16.8608 20.1374 17.8015C19.3333 18.7423 18.8549 19.9178 18.7735 21.1526C18.692 22.3875 19.012 23.6156 19.6856 24.6538C20.3591 25.692 21.3503 26.4846 22.5111 26.9135C23.672 27.3424 24.9404 27.3845 26.1271 27.0336C27.3139 26.6827 28.3555 25.9576 29.0964 24.9664C29.8374 23.9752 30.2382 22.7711 30.2389 21.5335V20.9472C30.2389 20.5951 30.5244 20.3096 30.8765 20.3096C31.2287 20.3096 31.5142 20.5951 31.5142 20.9472V21.5339C31.5133 23.0464 31.0235 24.5186 30.1179 25.73C29.2122 26.9415 27.9392 27.8277 26.4887 28.2566C25.0382 28.6855 23.488 28.634 22.0691 28.1098C20.6503 27.5856 19.4389 26.6168 18.6157 25.3479C17.7924 24.079 17.4014 22.578 17.5009 21.0687C17.6004 19.5594 18.1852 18.1227 19.1679 16.9729C20.1507 15.8231 21.4788 15.0218 22.9541 14.6884C24.4295 14.3551 25.9731 14.5076 27.3547 15.1232C27.6764 15.2666 27.821 15.6435 27.6777 15.9652C27.5343 16.2869 27.1574 16.4315 26.8357 16.2881Z" fill="#1D1D38"/>
<path fill-rule="evenodd" clip-rule="evenodd" d="M22.8471 14.2147C24.4247 13.8582 26.0752 14.0213 27.5525 14.6796C28.1192 14.9321 28.374 15.5962 28.1214 16.163C27.8689 16.7297 27.2048 16.9844 26.638 16.7319C25.6033 16.2708 24.4473 16.1566 23.3423 16.4063C22.2374 16.6559 21.2427 17.2561 20.5067 18.1172C19.7707 18.9783 19.3328 20.0543 19.2582 21.1846C19.1837 22.315 19.4765 23.4391 20.0931 24.3895C20.7097 25.3398 21.6169 26.0653 22.6795 26.4579C23.7421 26.8505 24.9031 26.889 25.9895 26.5678C27.0758 26.2467 28.0292 25.5829 28.7074 24.6756C29.3857 23.7683 29.7525 22.6661 29.7532 21.5333V20.9473C29.7532 20.3268 30.2561 19.8239 30.8766 19.8239C31.497 19.8239 32 20.3268 32 20.9473V21.5339C31.9991 23.1512 31.4754 24.7255 30.507 26.0209C29.5386 27.3163 28.1775 28.2639 26.6265 28.7225C25.0756 29.181 23.4179 29.126 21.9009 28.5655C20.3838 28.005 19.0885 26.9691 18.2082 25.6124C17.3279 24.2556 16.9098 22.6506 17.0163 21.0368C17.1227 19.423 17.7479 17.8868 18.7987 16.6574C19.8495 15.4279 21.2696 14.5711 22.8471 14.2147ZM27.1571 15.567C25.8712 14.994 24.4344 14.8521 23.0612 15.1623C21.688 15.4726 20.4519 16.2184 19.5372 17.2886C18.6226 18.3588 18.0783 19.696 17.9857 21.1007C17.8931 22.5055 18.257 23.9026 19.0232 25.0836C19.7895 26.2646 20.917 27.1663 22.2375 27.6542C23.5581 28.1421 25.001 28.19 26.3511 27.7908C27.7011 27.3917 28.8859 26.5668 29.7289 25.4392C30.5718 24.3117 31.0277 22.9415 31.0285 21.5336V20.9473C31.0285 20.8634 30.9605 20.7954 30.8766 20.7954C30.7927 20.7954 30.7247 20.8634 30.7247 20.9473V21.5336C30.7239 22.8759 30.2893 24.1822 29.4856 25.2573C28.6818 26.3324 27.5521 27.1189 26.2649 27.4995C24.9777 27.8801 23.6019 27.8344 22.3428 27.3692C21.0837 26.904 20.0087 26.0443 19.2781 24.9182C18.5475 23.7922 18.2005 22.4601 18.2888 21.1207C18.3771 19.7813 18.896 18.5064 19.7682 17.486C20.6403 16.4656 21.8189 15.7545 23.1282 15.4586C24.4375 15.1628 25.8074 15.2982 27.0334 15.8445C27.1101 15.8786 27.1999 15.8442 27.234 15.7676C27.2682 15.6909 27.2337 15.6011 27.1571 15.567Z" fill="#1D1D38"/>
<path fill-rule="evenodd" clip-rule="evenodd" d="M24.9676 13C25.5042 13 25.9391 13.435 25.9391 13.9715V20.969C25.9391 21.5056 25.5042 21.9406 24.9676 21.9406C24.4311 21.9406 23.9961 21.5056 23.9961 20.969V13.9715C23.9961 13.435 24.4311 13 24.9676 13Z" fill="#1D1D38"/>
<path d="M25.9029 24.9509C25.9029 25.4674 25.4842 25.8861 24.9677 25.8861C24.4512 25.8861 24.0325 25.4674 24.0325 24.9509C24.0325 24.4343 24.4512 24.0156 24.9677 24.0156C25.4842 24.0156 25.9029 24.4343 25.9029 24.9509Z" fill="#1D1D38"/>
<path d="M4.348 33.368C4.004 34.112 3.476 34.76 2.764 35.304L3.012 36.104C3.988 35.384 4.668 34.592 5.068 33.712L4.348 33.368ZM4.636 35.216C4.236 36.096 3.636 36.864 2.836 37.512L3.084 38.304C3.356 38.088 3.62 37.864 3.868 37.632V40.784H4.676V36.712C4.948 36.344 5.172 35.952 5.348 35.552L4.636 35.216ZM7.34 33.416V34.2H5.652V34.96H7.34V35.72H5.364V36.488H10.18V35.72H8.148V34.96H9.852V34.2H8.148V33.416H7.34ZM5.388 37.224V38H8.396V39.616C8.396 39.872 8.276 40.008 8.036 40.008C7.716 40.008 7.372 39.992 7.004 39.96L7.196 40.752H8.332C8.924 40.752 9.228 40.44 9.228 39.824V38H10.068V37.224H9.228V36.72H8.396V37.224H5.388ZM6.468 38.16L5.82 38.568C6.236 39.008 6.572 39.408 6.82 39.768L7.468 39.312C7.236 38.976 6.9 38.592 6.468 38.16ZM12.516 33.36C12.132 34.6 11.532 35.68 10.724 36.592L10.996 37.456C11.276 37.168 11.54 36.864 11.78 36.56V40.848H12.612V35.304C12.892 34.8 13.124 34.272 13.3 33.728L12.516 33.36ZM13.364 35.072V35.888H16.228V39.688C16.228 39.92 16.116 40.04 15.9 40.04C15.548 40.04 15.18 40.016 14.796 39.984L14.988 40.8H16.188C16.772 40.8 17.068 40.496 17.068 39.896V35.888H18.156V35.072H17.068V33.464H16.228V35.072H13.364ZM14.22 36.584L13.532 37.008C14.084 37.696 14.524 38.328 14.852 38.888L15.564 38.392C15.244 37.88 14.796 37.272 14.22 36.584ZM18.86 34.088V34.808H20.468V35.28H19.14V35.976H22.452V35.28H21.252V34.808H22.636V34.088H21.252V33.432H20.468V34.088H18.86ZM19.404 36.408V37.128H22.204V36.408H19.404ZM18.916 37.528V38.248H20.46V39.864C20.46 40.024 20.356 40.112 20.164 40.112C19.988 40.112 19.804 40.096 19.612 40.064L19.78 40.816H20.428C20.972 40.816 21.244 40.56 21.244 40.064V38.248H22.724V37.528H18.916ZM19.428 38.504C19.3 38.968 19.068 39.408 18.74 39.824L19.356 40.216C19.668 39.776 19.908 39.248 20.084 38.64L19.428 38.504ZM22.156 38.424L21.508 38.64C21.684 38.992 21.844 39.4 21.996 39.864L22.636 39.576C22.492 39.168 22.332 38.784 22.156 38.424ZM23.284 33.464C23.148 34.744 22.852 35.744 22.396 36.464L23.028 36.92C23.3 36.536 23.532 36.008 23.716 35.352H25.148C25.052 35.944 24.932 36.464 24.788 36.904L25.556 37.12C25.716 36.448 25.844 35.784 25.948 35.112V34.608H23.884C23.948 34.296 23.996 33.96 24.044 33.592L23.284 33.464ZM23.844 35.888C23.836 36.896 23.748 37.72 23.572 38.352C23.348 39.104 22.868 39.736 22.132 40.264L22.636 40.872C23.476 40.28 24.02 39.552 24.276 38.672C24.612 39.504 25.084 40.224 25.684 40.832L26.236 40.192C25.42 39.48 24.852 38.536 24.524 37.36C24.572 36.912 24.596 36.416 24.596 35.888H23.844Z" fill="#1D1D38"/>
</g>
</svg>
