<svg width="50" height="50" viewBox="0 0 50 50" fill="none" xmlns="http://www.w3.org/2000/svg">
<g opacity="0.3">
<path fill-rule="evenodd" clip-rule="evenodd" d="M20.6625 7.15813C18.648 6.26052 16.3973 6.03815 14.2461 6.52419C12.0949 7.01022 10.1584 8.17862 8.72551 9.85513C7.2926 11.5316 6.44001 13.6264 6.2949 15.8271C6.14979 18.0277 6.71993 20.2163 7.9203 22.0665C9.12067 23.9166 10.8869 25.3292 12.9557 26.0935C15.0245 26.8578 17.2849 26.9329 19.3998 26.3076C21.5147 25.6822 23.3709 24.39 24.6914 22.6236C26.0119 20.8572 26.726 18.7113 26.7273 16.5059V15.461C26.7273 14.8335 27.236 14.3247 27.8636 14.3247C28.4912 14.3247 29 14.8335 29 15.461V16.5065C28.9985 19.202 28.1256 21.8255 26.5117 23.9844C24.8977 26.1434 22.6291 27.7227 20.0442 28.487C17.4593 29.2513 14.6966 29.1595 12.1681 28.2254C9.6396 27.2912 7.48082 25.5648 6.0137 23.3035C4.54658 21.0422 3.84974 18.3672 4.0271 15.6775C4.20445 12.9879 5.24651 10.4276 6.99785 8.37849C8.74919 6.32943 11.116 4.90138 13.7452 4.30734C16.3745 3.71329 19.1253 3.98508 21.5875 5.08215C22.1608 5.33759 22.4184 6.00938 22.163 6.58264C21.9076 7.15591 21.2358 7.41356 20.6625 7.15813Z" fill="#1D1D38"/>
<path fill-rule="evenodd" clip-rule="evenodd" d="M28.6668 6.61166C29.1108 7.05522 29.1111 7.77472 28.6676 8.21872L17.3039 19.5937C17.0909 19.807 16.8018 19.9269 16.5003 19.927C16.1988 19.927 15.9097 19.8073 15.6965 19.5941L12.2874 16.185C11.8436 15.7413 11.8436 15.0217 12.2874 14.578C12.7312 14.1342 13.4507 14.1342 13.8944 14.578L16.4996 17.1831L27.0597 6.61247C27.5033 6.16847 28.2228 6.16811 28.6668 6.61166Z" fill="#1D1D38"/>
<path d="M9.276 37.208V33.784H3.172V34.584H8.428V36.408H4.34V35.352H3.508V39.496C3.508 40.216 3.844 40.576 4.532 40.576H8.98C9.3 40.56 9.564 40.464 9.756 40.288C9.916 40.112 10.052 39.512 10.156 38.488L9.34 38.232C9.292 39.048 9.22 39.52 9.108 39.632C8.996 39.728 8.876 39.776 8.748 39.776H4.772C4.484 39.776 4.34 39.632 4.34 39.344V37.208H9.276ZM18.188 38.68L17.356 38.416C17.34 39 17.308 39.4 17.268 39.616C17.228 39.824 17.132 39.936 16.972 39.936H15.796C15.692 39.92 15.644 39.792 15.644 39.552V37.144H17.748V33.688H14.772V34.472H16.948V36.344H14.828V39.888C14.828 40.432 15.028 40.712 15.428 40.712H17.108C17.516 40.712 17.78 40.584 17.9 40.336C18.02 40.08 18.116 39.528 18.188 38.68ZM10.852 33.68V34.464H11.844V35.16H11.012V40.8H11.748V40.44H13.74V40.8H14.476V35.16H13.636V34.464H14.572V33.68H10.852ZM11.748 39.656V39.08H13.74V39.656H11.748ZM12.028 35.912V36.32C12.02 36.896 11.924 37.352 11.748 37.672V35.912H12.028ZM11.748 37.904L12.084 38.2C12.396 37.8 12.556 37.176 12.564 36.32V35.912H12.9V37.248C12.9 37.648 13.092 37.848 13.484 37.848H13.74V38.328H11.748V37.904ZM12.548 35.16V34.464H12.932V35.16H12.548ZM13.74 37.216H13.652C13.508 37.216 13.444 37.168 13.444 37.072V35.912H13.74V37.216ZM19.62 33.496L19.044 34.04C19.62 34.504 20.06 34.936 20.364 35.336L20.964 34.744C20.596 34.328 20.148 33.912 19.62 33.496ZM24.172 40.704H26.004L26.204 39.88C25.988 39.896 25.676 39.912 25.268 39.928C24.852 39.928 24.452 39.936 24.052 39.936C23.428 39.936 22.892 39.928 22.428 39.92C21.956 39.904 21.604 39.84 21.372 39.72C21.18 39.616 20.996 39.456 20.812 39.248L20.724 39.16V36.12H18.892V36.888H19.948V39.08C19.628 39.256 19.276 39.664 18.876 40.304L19.492 40.872C19.892 40.152 20.164 39.8 20.324 39.8C20.412 39.8 20.508 39.864 20.62 40C20.86 40.272 21.14 40.456 21.46 40.552C21.796 40.632 22.22 40.68 22.74 40.688C23.252 40.696 23.732 40.704 24.172 40.704ZM21.316 36.496V37.28H22.972C22.7 37.952 22.124 38.496 21.244 38.92L21.772 39.6C22.916 38.968 23.612 38.192 23.86 37.28H25.964V36.496H24.004C24.036 36.224 24.06 35.904 24.068 35.552H25.692V34.784H24.836C25.028 34.448 25.204 34.064 25.364 33.648L24.58 33.368C24.412 33.864 24.212 34.336 23.988 34.784H22.836L23.252 34.576C23.044 34.16 22.82 33.776 22.596 33.44L21.852 33.8C22.068 34.088 22.276 34.416 22.468 34.784H21.588V35.552H23.244C23.236 35.896 23.212 36.208 23.172 36.496H21.316ZM24.26 37.624L23.772 38.176C24.332 38.584 24.876 39.064 25.388 39.624L25.972 38.984C25.46 38.504 24.884 38.048 24.26 37.624Z" fill="#1D1D38"/>
</g>
</svg>
