<svg width="100" height="100" viewBox="0 0 100 100" fill="none" xmlns="http://www.w3.org/2000/svg">
<path fill-rule="evenodd" clip-rule="evenodd" d="M57.2078 40.5008C55.9042 36.6524 51.7276 34.5894 47.8792 35.893C44.0308 37.1966 41.9678 41.3731 43.2714 45.2215C43.6712 46.4018 43.0385 47.6828 41.8582 48.0826C40.6779 48.4824 39.397 47.8497 38.9972 46.6694C36.8939 40.4603 40.2224 33.722 46.4314 31.6187C52.6404 29.5155 59.3788 32.8439 61.482 39.053C63.5852 45.262 60.2568 52.0004 54.0478 54.1036C52.8675 54.5034 51.5866 53.8707 51.1867 52.6904C50.7869 51.5101 51.4196 50.2292 52.5999 49.8293C56.4484 48.5258 58.5114 44.3492 57.2078 40.5008Z" fill="#1D1D38"/>
<path fill-rule="evenodd" clip-rule="evenodd" d="M52.3695 50.6298C53.3876 49.9111 54.7955 50.1539 55.5141 51.1719L61.8013 60.0788C63.6769 62.7358 61.7766 66.4031 58.5243 66.4031H42.997C39.5961 66.4031 37.7383 62.4366 39.9155 59.8241L40.9504 58.5821C41.7482 57.6248 43.171 57.4954 44.1284 58.2932C45.0857 59.091 45.215 60.5138 44.4173 61.4712L44.068 61.8903H57.5562L51.8273 53.7744C51.1086 52.7563 51.3514 51.3484 52.3695 50.6298Z" fill="#1D1D38"/>
<path d="M47.0756 52.8647C47.0756 54.1108 46.0654 55.1211 44.8192 55.1211C43.573 55.1211 42.5628 54.1108 42.5628 52.8647C42.5628 51.6185 43.573 50.6083 44.8192 50.6083C46.0654 50.6083 47.0756 51.6185 47.0756 52.8647Z" fill="#1D1D38"/>
<path d="M68.3011 81.6987C50.7944 91.8062 28.4087 85.8079 18.3012 68.3012C8.19369 50.7945 14.1919 28.4088 31.6986 18.3013C49.2053 8.19375 71.5911 14.192 81.6986 31.6987" stroke="url(#paint0_linear_3454_19170)" stroke-width="5.76417" stroke-linecap="round" stroke-linejoin="round"/>
<path d="M75.8158 64.9097C67.5825 79.1703 49.3476 84.0563 35.087 75.823C20.8265 67.5896 15.9404 49.3547 24.1738 35.0942C32.4071 20.8337 50.642 15.9476 64.9025 24.181" stroke="url(#paint1_linear_3454_19170)" stroke-width="1.15283" stroke-linecap="round" stroke-linejoin="round"/>
<circle cx="75.1332" cy="65.7077" r="9.23921" transform="rotate(60 75.1332 65.7077)" fill="url(#paint2_linear_3454_19170)"/>
<circle cx="68.3687" cy="26.812" r="1.26622" transform="rotate(60 68.3687 26.812)" fill="url(#paint3_linear_3454_19170)"/>
<path d="M24.5857 83.4295V93.4455H26.2817V83.4295H24.5857ZM24.6977 78.6295C23.1137 80.9335 20.8577 82.8215 17.9137 84.2615L18.9217 85.7815C21.5457 84.4695 23.7217 82.6135 25.4337 80.1975C26.8577 82.4215 29.0337 84.2775 31.9457 85.7815L32.9537 84.2615C29.7537 82.6455 27.4817 80.7735 26.1697 78.6295H24.6977ZM42.2177 78.6615H40.5217C40.5217 79.2695 40.5057 80.1015 40.5057 81.1735C40.3777 85.7655 38.1857 89.3495 33.8977 91.9095L34.9217 93.4135C38.2497 91.2695 40.4417 88.5655 41.4977 85.3015C42.7297 88.6775 44.8417 91.3655 47.8337 93.3815L48.9537 91.9095C45.3217 89.6855 43.0337 86.4695 42.1057 82.2615C42.1697 81.2695 42.2177 80.0695 42.2177 78.6615ZM56.5697 78.5655V81.3015H50.9057V89.1095H52.5857V88.2295H56.5697V93.5735H58.2977V88.2295H62.2977V89.1095H63.9777V81.3015H58.2977V78.5655H56.5697ZM52.5857 86.5975V82.9335H56.5697V86.5975H52.5857ZM58.2977 86.5975V82.9335H62.2977V86.5975H58.2977ZM75.5777 92.9335C76.2497 92.9335 76.7457 92.7255 77.0657 92.3095C77.4177 91.8775 77.6577 90.5175 77.7857 88.2295L76.2017 87.7015C76.1377 89.4455 76.0417 90.4855 75.8817 90.8215C75.7537 91.1415 75.5457 91.3015 75.2577 91.3015H72.5377C72.0097 91.3015 71.7537 91.0775 71.7537 90.6295V81.9895H70.0737V90.9975C70.0737 92.2775 70.7137 92.9335 72.0257 92.9335H75.5777ZM67.6257 83.5255C67.3057 85.9575 66.7457 88.2615 65.9617 90.4375L67.4177 91.3495C68.2017 89.2535 68.8097 86.7575 69.2417 83.8615L67.6257 83.5255ZM78.5537 83.1255L76.9537 83.6535C77.8497 85.7015 78.6817 88.0535 79.4177 90.7415L80.9537 90.0375C80.2657 87.5895 79.4657 85.2855 78.5537 83.1255ZM72.9057 78.5655L71.5297 79.4295C72.8577 81.0295 73.9137 82.5015 74.7137 83.8295L76.1057 82.8695C75.3697 81.6375 74.2977 80.1975 72.9057 78.5655Z" fill="#1D1D38"/>
<defs>
<linearGradient id="paint0_linear_3454_19170" x1="68.3012" y1="81.6987" x2="31.6986" y2="18.3013" gradientUnits="userSpaceOnUse">
<stop stop-color="#91E8B3"/>
<stop offset="1" stop-color="#C0E57B"/>
<stop offset="1" stop-color="#C0E57B"/>
</linearGradient>
<linearGradient id="paint1_linear_3454_19170" x1="75.8158" y1="64.9097" x2="24.1738" y2="35.0942" gradientUnits="userSpaceOnUse">
<stop stop-color="#91E8B3"/>
<stop offset="1" stop-color="#C0E57B"/>
<stop offset="1" stop-color="#C0E57B"/>
</linearGradient>
<linearGradient id="paint2_linear_3454_19170" x1="84.3724" y1="65.7077" x2="65.894" y2="65.7077" gradientUnits="userSpaceOnUse">
<stop stop-color="#91E8B3"/>
<stop offset="1" stop-color="#C0E57B"/>
<stop offset="1" stop-color="#C0E57B"/>
</linearGradient>
<linearGradient id="paint3_linear_3454_19170" x1="69.6349" y1="26.812" x2="67.1025" y2="26.812" gradientUnits="userSpaceOnUse">
<stop stop-color="#91E8B3"/>
<stop offset="1" stop-color="#C0E57B"/>
<stop offset="1" stop-color="#C0E57B"/>
</linearGradient>
</defs>
</svg>
