<svg width="50" height="50" viewBox="0 0 50 50" fill="none" xmlns="http://www.w3.org/2000/svg">
<g opacity="0.3">
<path fill-rule="evenodd" clip-rule="evenodd" d="M2.27915 19.8958V12.0657L12.5123 17.4257V25.0124L2.27915 19.8958ZM13.7915 25.0124V17.4873L18.2682 15.1424L18.2682 17.7328L19.5474 16.7734L19.5474 14.4724L24.0247 12.1273V19.8958L13.7915 25.0124ZM19.066 13.2805L22.6645 11.3957L13.2107 6.44399L9.68655 8.28986L18.8667 13.1499C18.9379 13.1876 19.0045 13.2314 19.066 13.2805ZM8.31231 9.00967L3.75685 11.3957L13.2107 16.3475L17.7156 13.9879L8.31231 9.00967ZM25.4213 11.3957L25.3038 11.4573V19.8958C25.3038 20.3803 25.0301 20.8232 24.5967 21.0399L13.1519 26.7623L1.7071 21.0399C1.27374 20.8232 1 20.3803 1 19.8958V11.3957V11.337H1.11212L13.2107 5L25.4213 11.3957Z" fill="#1D1D38"/>
<path d="M2.27915 12.0657L2.51114 11.6228C2.35615 11.5416 2.17 11.5474 2.0203 11.6379C1.87061 11.7285 1.77915 11.8908 1.77915 12.0657H2.27915ZM2.27915 19.8958H1.77915C1.77915 20.0851 1.88615 20.2583 2.05554 20.343L2.27915 19.8958ZM12.5123 17.4257H13.0123C13.0123 17.2397 12.9091 17.0691 12.7443 16.9828L12.5123 17.4257ZM12.5123 25.0124L12.2887 25.4596C12.4437 25.5371 12.6278 25.5288 12.7752 25.4377C12.9226 25.3466 13.0123 25.1856 13.0123 25.0124H12.5123ZM13.7915 17.4873L13.5595 17.0443C13.3947 17.1306 13.2915 17.3013 13.2915 17.4873H13.7915ZM13.7915 25.0124H13.2915C13.2915 25.1856 13.3812 25.3466 13.5286 25.4377C13.676 25.5288 13.8601 25.5371 14.0151 25.4596L13.7915 25.0124ZM18.2682 15.1424H18.7682C18.7682 14.9674 18.6768 14.8052 18.5271 14.7146C18.3774 14.6241 18.1912 14.6183 18.0362 14.6995L18.2682 15.1424ZM18.2682 17.7328H17.7682C17.7682 17.9222 17.8752 18.0953 18.0446 18.18C18.214 18.2647 18.4167 18.2464 18.5682 18.1328L18.2682 17.7328ZM19.5474 16.7734L19.8474 17.1735C19.9733 17.079 20.0474 16.9308 20.0474 16.7734L19.5474 16.7734ZM19.5474 14.4724L19.3154 14.0295C19.1506 14.1158 19.0474 14.2864 19.0474 14.4724L19.5474 14.4724ZM24.0247 12.1273H24.5247C24.5247 11.9523 24.4332 11.7901 24.2835 11.6995C24.1338 11.6089 23.9477 11.6032 23.7927 11.6844L24.0247 12.1273ZM24.0247 19.8958L24.2483 20.343C24.4177 20.2583 24.5247 20.0851 24.5247 19.8958H24.0247ZM22.6645 11.3957L22.8965 11.8387C23.0612 11.7524 23.1645 11.5817 23.1645 11.3957C23.1645 11.2097 23.0612 11.0391 22.8965 10.9528L22.6645 11.3957ZM19.066 13.2805L18.7542 13.6714C18.9092 13.795 19.1225 13.8154 19.298 13.7235L19.066 13.2805ZM13.2107 6.44399L13.4427 6.00107C13.2974 5.92497 13.124 5.92497 12.9787 6.00107L13.2107 6.44399ZM9.68655 8.28986L9.45456 7.84694C9.29015 7.93306 9.18696 8.10316 9.18656 8.28876C9.18615 8.47436 9.28858 8.64491 9.45261 8.73176L9.68655 8.28986ZM18.8667 13.1499L19.1007 12.7081V12.7081L18.8667 13.1499ZM3.75685 11.3957L3.52486 10.9528C3.36009 11.0391 3.25685 11.2097 3.25685 11.3957C3.25685 11.5817 3.36009 11.7524 3.52486 11.8387L3.75685 11.3957ZM8.31231 9.00967L8.54625 8.56777C8.4006 8.49066 8.22631 8.49028 8.08032 8.56675L8.31231 9.00967ZM13.2107 16.3475L12.9787 16.7904C13.124 16.8665 13.2974 16.8665 13.4427 16.7904L13.2107 16.3475ZM17.7156 13.9879L17.9476 14.4308C18.112 14.3447 18.2152 14.1746 18.2156 13.989C18.216 13.8034 18.1136 13.6328 17.9495 13.546L17.7156 13.9879ZM25.3038 11.4573L25.0718 11.0144C24.907 11.1007 24.8038 11.2713 24.8038 11.4573H25.3038ZM25.4213 11.3957L25.6533 11.8387C25.8181 11.7524 25.9213 11.5817 25.9213 11.3957C25.9213 11.2097 25.8181 11.0391 25.6533 10.9528L25.4213 11.3957ZM24.5967 21.0399L24.8203 21.4871H24.8203L24.5967 21.0399ZM13.1519 26.7623L12.9283 27.2095C13.0691 27.2799 13.2347 27.2799 13.3755 27.2095L13.1519 26.7623ZM1.7071 21.0399L1.48349 21.4871H1.48349L1.7071 21.0399ZM1 11.337V10.837C0.723858 10.837 0.5 11.0609 0.5 11.337H1ZM1.11212 11.337V11.837C1.19293 11.837 1.27253 11.8174 1.34412 11.7799L1.11212 11.337ZM13.2107 5L13.4427 4.55708C13.2974 4.48097 13.124 4.48097 12.9787 4.55708L13.2107 5ZM1.77915 12.0657V19.8958H2.77915V12.0657H1.77915ZM12.7443 16.9828L2.51114 11.6228L2.04715 12.5087L12.2803 17.8686L12.7443 16.9828ZM13.0123 25.0124V17.4257H12.0123V25.0124H13.0123ZM2.05554 20.343L12.2887 25.4596L12.7359 24.5651L2.50275 19.4485L2.05554 20.343ZM13.2915 17.4873V25.0124H14.2915V17.4873H13.2915ZM18.0362 14.6995L13.5595 17.0443L14.0235 17.9302L18.5002 15.5853L18.0362 14.6995ZM18.7682 17.7328L18.7682 15.1424H17.7682L17.7682 17.7328H18.7682ZM19.2474 16.3734L17.9682 17.3328L18.5682 18.1328L19.8474 17.1735L19.2474 16.3734ZM19.0474 14.4724L19.0474 16.7735L20.0474 16.7734L20.0474 14.4724L19.0474 14.4724ZM23.7927 11.6844L19.3154 14.0295L19.7794 14.9153L24.2566 12.5702L23.7927 11.6844ZM24.5247 19.8958V12.1273H23.5247V19.8958H24.5247ZM14.0151 25.4596L24.2483 20.343L23.801 19.4485L13.5679 24.5651L14.0151 25.4596ZM22.4325 10.9528L18.834 12.8376L19.298 13.7235L22.8965 11.8387L22.4325 10.9528ZM12.9787 6.88691L22.4325 11.8387L22.8965 10.9528L13.4427 6.00107L12.9787 6.88691ZM9.91855 8.73278L13.4427 6.88691L12.9787 6.00107L9.45456 7.84694L9.91855 8.73278ZM9.45261 8.73176L18.6328 13.5918L19.1007 12.7081L9.9205 7.84797L9.45261 8.73176ZM18.6328 13.5918C18.6762 13.6148 18.7168 13.6415 18.7542 13.6714L19.3778 12.8897C19.2921 12.8213 19.1995 12.7604 19.1007 12.7081L18.6328 13.5918ZM3.98885 11.8387L8.5443 9.45259L8.08032 8.56675L3.52486 10.9528L3.98885 11.8387ZM13.4427 15.9046L3.98885 10.9528L3.52486 11.8387L12.9787 16.7904L13.4427 15.9046ZM17.4836 13.545L12.9787 15.9046L13.4427 16.7904L17.9476 14.4308L17.4836 13.545ZM17.9495 13.546L8.54625 8.56777L8.07837 9.45156L17.4817 14.4298L17.9495 13.546ZM25.5358 11.9002L25.6533 11.8387L25.1893 10.9528L25.0718 11.0144L25.5358 11.9002ZM25.8038 19.8958V11.4573H24.8038V19.8958H25.8038ZM24.8203 21.4871C25.4231 21.1857 25.8038 20.5697 25.8038 19.8958H24.8038C24.8038 20.1909 24.6371 20.4607 24.3731 20.5927L24.8203 21.4871ZM13.3755 27.2095L24.8203 21.4871L24.3731 20.5927L12.9283 26.3151L13.3755 27.2095ZM1.48349 21.4871L12.9283 27.2095L13.3755 26.3151L1.9307 20.5927L1.48349 21.4871ZM0.5 19.8958C0.5 20.5697 0.880741 21.1857 1.48349 21.4871L1.9307 20.5927C1.66674 20.4607 1.5 20.1909 1.5 19.8958H0.5ZM0.5 11.3957V19.8958H1.5V11.3957H0.5ZM0.5 11.337V11.3957H1.5V11.337H0.5ZM1.11212 10.837H1V11.837H1.11212V10.837ZM12.9787 4.55708L0.880129 10.8941L1.34412 11.7799L13.4427 5.44292L12.9787 4.55708ZM25.6533 10.9528L13.4427 4.55708L12.9787 5.44292L25.1893 11.8387L25.6533 10.9528Z" fill="#1D1D38"/>
<line x1="24" y1="6" x2="33" y2="6" stroke="#1D1D38" stroke-width="2"/>
<line x1="27" y1="10" x2="36" y2="10" stroke="#1D1D38" stroke-width="2"/>
<line x1="27" y1="14" x2="34" y2="14" stroke="#1D1D38" stroke-width="2"/>
<circle cx="39.5" cy="9.5" r="1.5" fill="#1D1D38"/>
<path d="M4.308 33.432C4.044 35 3.532 36.24 2.772 37.168L3.34 37.888C3.556 37.632 3.756 37.36 3.94 37.056C4.116 37.64 4.316 38.152 4.532 38.584C4.084 39.16 3.532 39.624 2.876 39.984L3.324 40.784C3.98 40.416 4.556 39.952 5.036 39.384C5.18 39.568 5.332 39.728 5.5 39.856C6.236 40.416 7.452 40.704 9.14 40.704H10.036L10.204 39.832C9.7 39.872 9.212 39.896 8.74 39.896C7.476 39.88 6.548 39.656 5.972 39.232C5.812 39.12 5.652 38.952 5.508 38.744C6.092 37.824 6.476 36.68 6.66 35.32V34.576H4.916C4.996 34.256 5.06 33.928 5.124 33.576L4.308 33.432ZM4.42 36.096C4.516 35.864 4.604 35.624 4.692 35.368H5.844C5.684 36.312 5.404 37.144 5.02 37.848C4.812 37.376 4.612 36.792 4.42 36.096ZM7.484 33.464V39.384H8.324V36.376C8.724 36.728 9.212 37.192 9.772 37.784L10.268 37.032C9.612 36.456 8.964 35.944 8.324 35.496V33.464H7.484ZM13.732 33.68V37.56H15.372V38.296H13.644V39.072H15.372V39.816H13.34V40.624H18.196V39.816H16.204V39.072H17.924V38.296H16.204V37.56H17.828V33.68H13.732ZM17.028 36.824H16.204V35.976H17.028V36.824ZM15.372 36.824H14.532V35.976H15.372V36.824ZM14.532 35.264V34.416H15.372V35.264H14.532ZM16.204 34.416H17.028V35.264H16.204V34.416ZM10.988 36.304V37.104H11.748V38.864C11.436 38.944 11.116 39.008 10.788 39.064L10.996 39.864C11.828 39.664 12.612 39.424 13.348 39.136V38.328C13.1 38.432 12.852 38.528 12.596 38.616V37.104H13.372V36.304H12.596V34.672H13.468V33.88H10.868V34.672H11.748V36.304H10.988ZM22.068 33.392V34.76H19.236V38.664H20.076V38.224H22.068V40.896H22.932V38.224H24.932V38.664H25.772V34.76H22.932V33.392H22.068ZM20.076 37.408V35.576H22.068V37.408H20.076ZM22.932 37.408V35.576H24.932V37.408H22.932Z" fill="#1D1D38"/>
</g>
</svg>
