<svg width="70" height="70" viewBox="0 0 70 70" fill="none" xmlns="http://www.w3.org/2000/svg">
<path fill-rule="evenodd" clip-rule="evenodd" d="M40.5255 18.622C39.361 15.0905 35.6482 13.2261 32.2492 14.4089C28.84 15.5952 26.9857 19.414 28.1531 22.9542C28.2873 23.3614 28.0661 23.8003 27.6589 23.9346C27.2517 24.0689 26.8128 23.8476 26.6785 23.4404C25.2553 19.1244 27.5005 14.4173 31.7389 12.9425C35.9873 11.4641 40.574 13.8111 42 18.1357C43.3049 22.0929 41.526 26.3788 37.9545 28.2009L42.5258 34.3588C43.4864 35.6529 42.5724 37.4993 40.9712 37.4993H28.1983C26.4938 37.4993 25.6152 35.4405 26.7856 34.1887L27.6239 33.292C27.9175 32.978 28.4075 32.9638 28.7183 33.2604C29.0292 33.5569 29.0432 34.0519 28.7496 34.3659L27.9112 35.2626C27.6734 35.517 27.8519 35.9353 28.1983 35.9353H40.9712C41.2966 35.9353 41.4823 35.5601 41.2871 35.2972L36.2945 28.5718C36.1395 28.4818 36.0148 28.3381 35.9513 28.1556C35.8104 27.7507 36.0244 27.3082 36.4294 27.1673C39.8385 25.981 41.6928 22.1621 40.5255 18.622ZM30.3206 32.0083C31.2411 32.0083 31.9873 31.2621 31.9873 30.3416C31.9873 29.4211 31.2411 28.6749 30.3206 28.6749C29.4001 28.6749 28.654 29.4211 28.654 30.3416C28.654 31.2621 29.4001 32.0083 30.3206 32.0083Z" fill="#E47F10"/>
<path d="M28.6437 54.4234C27.9157 54.6704 27.1227 54.9044 26.2777 55.1254V52.7854H29.4757C29.5797 53.7734 29.7227 54.6314 29.9047 55.3724C30.0347 55.8794 30.1777 56.3604 30.3337 56.8024C29.3847 57.6994 28.2797 58.3884 27.0057 58.8564L27.5127 59.6624C28.6957 59.1944 29.7617 58.5444 30.6977 57.7124C30.9057 58.1804 31.1527 58.5964 31.4127 58.9474C32.0107 59.7274 32.5697 60.1174 33.1027 60.1174C33.7007 60.1174 34.1557 59.1944 34.4677 57.3484L33.6487 56.9194C33.4407 58.3754 33.2197 59.1034 32.9597 59.1164C32.7127 59.1164 32.3747 58.7914 31.9587 58.1674C31.7507 57.8684 31.5687 57.4914 31.3867 57.0494C32.2057 56.1784 32.9077 55.1384 33.5057 53.9164L32.6997 53.4874C32.2317 54.4494 31.6727 55.3074 31.0487 56.0614C30.9577 55.7754 30.8667 55.4764 30.7887 55.1384C30.6327 54.5014 30.5157 53.7214 30.4247 52.7854H34.3637V51.8884H30.3467C30.2687 50.8744 30.2297 49.7174 30.2167 48.4044H29.2807C29.2807 49.6784 29.3197 50.8354 29.3977 51.8884H26.2777V49.9384C26.9537 49.7564 27.6037 49.5614 28.2017 49.3534L27.8897 48.4694C26.4597 49.0284 24.8217 49.4054 22.9757 49.6134L23.1707 50.5104C23.9117 50.4064 24.6267 50.2894 25.3157 50.1464V51.8884H22.6377V52.7854H25.3157V55.3464C24.4707 55.5284 23.5737 55.6844 22.6247 55.8404L22.7547 56.7894C23.6387 56.6464 24.4837 56.4774 25.3157 56.2954V58.7654C25.3157 59.1164 25.1337 59.2984 24.7697 59.2984C24.3407 59.2984 23.8987 59.2724 23.4437 59.2334L23.6387 60.1304H25.0817C25.8747 60.1304 26.2777 59.7534 26.2777 58.9994V56.0744C27.1097 55.8534 27.8897 55.6194 28.6437 55.3724V54.4234ZM31.6467 48.5474L31.0227 49.1454C32.0107 49.8344 32.7777 50.4844 33.3497 51.0824L34.0257 50.4064C33.3757 49.7824 32.5827 49.1714 31.6467 48.5474ZM40.2527 50.6274H38.1597C38.4197 49.9774 38.6147 49.2624 38.7707 48.4954L37.8347 48.3654C37.7177 49.1454 37.5357 49.8994 37.2757 50.6274H36.0667V59.8704H36.9767V58.7524H39.3427V59.4934H40.2527V50.6274ZM36.9767 57.8814V55.0344H39.3427V57.8814H36.9767ZM36.9767 54.1894V51.5114H39.3427V54.1894H36.9767ZM42.5147 53.6434L41.7607 54.1114C42.6577 55.1774 43.3727 56.1394 43.9057 56.9974L44.6467 56.4774C44.1527 55.6714 43.4507 54.7224 42.5147 53.6434ZM46.9737 50.6404H42.8267C43.0607 49.9644 43.2427 49.2364 43.3987 48.4694L42.4757 48.3524C42.1377 50.1984 41.5267 51.7584 40.6167 53.0324L41.1757 53.7734C41.6827 53.1104 42.1117 52.3694 42.4757 51.5504H46.0507C46.0247 55.2944 45.9727 57.5434 45.8947 58.2714C45.7907 58.9344 45.4397 59.2724 44.8287 59.2724C44.4257 59.2724 43.9577 59.2594 43.4117 59.2334L43.6327 60.0914C44.2567 60.1174 44.6987 60.1434 44.9587 60.1434C46.0507 60.1434 46.6487 59.6364 46.7787 58.6484C46.9087 57.6344 46.9737 54.9564 46.9737 50.6404Z" fill="#E47F10"/>
</svg>
