<svg width="80" height="54" viewBox="0 0 80 54" fill="none" xmlns="http://www.w3.org/2000/svg">
<rect x="28.8008" y="16.0039" width="33.6" height="25.6" fill="#FDD444"/>
<path d="M44.7372 36.8031H22.4023V11.2031H56.0023V25.6031" stroke="#1D1D38" stroke-width="3.2"/>
<line x1="22.4023" y1="19.2047" x2="56.0023" y2="19.2047" stroke="#1D1D38" stroke-width="3.2"/>
<path fill-rule="evenodd" clip-rule="evenodd" d="M58.9365 26.062C57.1279 25.2561 55.1071 25.0565 53.1757 25.4928C51.2443 25.9292 49.5057 26.9782 48.2192 28.4834C46.9327 29.9886 46.1673 31.8694 46.037 33.8452C45.9067 35.821 46.4186 37.7859 47.4963 39.4471C48.574 41.1082 50.1598 42.3764 52.0172 43.0626C53.8746 43.7488 55.904 43.8162 57.8028 43.2548C59.7017 42.6934 61.3681 41.5332 62.5537 39.9473C63.7393 38.3613 64.3805 36.4347 64.3816 34.4546V33.5165C64.3816 32.9531 64.8384 32.4963 65.4019 32.4963C65.9653 32.4963 66.4221 32.9531 66.4221 33.5165V34.4552C66.4207 36.8753 65.6371 39.2307 64.188 41.169C62.739 43.1074 60.7022 44.5254 58.3814 45.2115C56.0606 45.8977 53.5802 45.8153 51.3101 44.9766C49.0399 44.1379 47.1017 42.5879 45.7845 40.5577C44.4673 38.5274 43.8417 36.1258 44.0009 33.7109C44.1601 31.2961 45.0957 28.9974 46.6681 27.1577C48.2405 25.318 50.3654 24.0358 52.7261 23.5025C55.0867 22.9691 57.5564 23.2132 59.767 24.1981C60.2817 24.4275 60.513 25.0306 60.2837 25.5453C60.0544 26.06 59.4512 26.2913 58.9365 26.062Z" fill="#1D1D38"/>
<path fill-rule="evenodd" clip-rule="evenodd" d="M52.5586 22.7443C55.0826 22.174 57.7234 22.4349 60.0871 23.4881C60.9939 23.8921 61.4015 24.9547 60.9974 25.8615C60.5934 26.7683 59.5308 27.1759 58.624 26.7718C56.9684 26.0341 55.1187 25.8514 53.3508 26.2508C51.5829 26.6503 49.9915 27.6105 48.8138 28.9883C47.6362 30.3661 46.9356 32.0876 46.8163 33.8962C46.697 35.7048 47.1656 37.5034 48.1521 39.0239C49.1386 40.5444 50.5902 41.7053 52.2903 42.3334C53.9905 42.9615 55.8482 43.0232 57.5863 42.5093C59.3244 41.9954 60.8498 40.9335 61.935 39.4818C63.0202 38.0301 63.6071 36.2665 63.6082 34.454V33.5164C63.6082 32.5237 64.4129 31.7189 65.4057 31.7189C66.3984 31.7189 67.2031 32.5237 67.2031 33.5164V34.4551C67.2016 37.0427 66.3637 39.5617 64.8143 41.6343C63.2649 43.7068 61.0871 45.223 58.6056 45.9568C56.124 46.6905 53.4718 46.6024 51.0445 45.7056C48.6171 44.8088 46.5447 43.1514 45.1363 40.9806C43.7278 38.8097 43.0589 36.2418 43.2291 33.6597C43.3994 31.0776 44.3998 28.6197 46.0811 26.6526C47.7623 24.6855 50.0345 23.3145 52.5586 22.7443ZM59.4545 24.908C57.397 23.9912 55.0982 23.7641 52.9011 24.2605C50.704 24.7569 48.7262 25.9502 47.2627 27.6625C45.7992 29.3748 44.9284 31.5143 44.7802 33.7619C44.632 36.0096 45.2143 38.2449 46.4403 40.1345C47.6663 42.0241 49.4703 43.4668 51.5832 44.2475C53.6961 45.0281 56.0047 45.1048 58.1648 44.4661C60.3249 43.8274 62.2206 42.5076 63.5693 40.7035C64.918 38.8995 65.6474 36.7072 65.6487 34.4546V33.5164C65.6487 33.3822 65.5399 33.2734 65.4057 33.2734C65.2714 33.2734 65.1626 33.3822 65.1626 33.5164V34.4545C65.1614 36.6022 64.466 38.6924 63.18 40.4125C61.8941 42.1327 60.0865 43.391 58.027 44C55.9674 44.6089 53.7662 44.5358 51.7516 43.7915C49.737 43.0472 48.017 41.6717 46.8481 39.87C45.6791 38.0683 45.1239 35.937 45.2652 33.7939C45.4065 31.6509 46.2368 29.6109 47.6322 27.9783C49.0276 26.3457 50.9134 25.2079 53.0082 24.7346C55.1031 24.2613 57.2949 24.4778 59.2566 25.3519C59.3792 25.4066 59.5229 25.3515 59.5775 25.2289C59.6322 25.1063 59.5771 24.9626 59.4545 24.908Z" fill="#1D1D38"/>
<path fill-rule="evenodd" clip-rule="evenodd" d="M55.9529 20.8008C56.8114 20.8008 57.5073 21.4967 57.5073 22.3552V33.5513C57.5073 34.4098 56.8114 35.1057 55.9529 35.1057C55.0944 35.1057 54.3984 34.4098 54.3984 33.5513V22.3552C54.3984 21.4967 55.0944 20.8008 55.9529 20.8008Z" fill="#1D1D38"/>
<path d="M57.4459 39.9222C57.4459 40.7486 56.7759 41.4185 55.9495 41.4185C55.1231 41.4185 54.4531 40.7486 54.4531 39.9222C54.4531 39.0957 55.1231 38.4258 55.9495 38.4258C56.7759 38.4258 57.4459 39.0957 57.4459 39.9222Z" fill="#1D1D38"/>
</svg>
