<svg width="47" height="47" viewBox="0 0 47 47" fill="none" xmlns="http://www.w3.org/2000/svg">
<g id="shakehand">
<path id="Vector 113" d="M36.2796 12.9525L28.2518 24.2396L22.4669 23.508M22.4669 23.508L16.9048 30.5835C16.9048 30.5835 20.8974 31.7067 22.3351 31.0653C23.5833 30.5084 25.5173 28.1664 25.5173 28.1664C25.5173 28.1664 29.6513 30.9998 33.796 34.258M22.4669 23.508C22.4669 23.508 20.6504 21.2025 18.9493 20.8957L15.0878 21.3582L7.72512 16.3714M33.796 34.258C33.2624 38.8463 29.0336 42.6621 29.0336 42.6621M33.796 34.258C34.3296 29.6697 44.1749 23.4009 44.1749 23.4009M27.4886 44.6275C28.092 43.8599 29.0336 42.6621 29.0336 42.6621M29.0336 42.6621C29.0336 42.6621 24.8305 36.8043 20.7789 36.1729C19.272 35.9381 16.8753 36.2843 16.8753 36.2843C16.8753 36.2843 15.9337 37.4822 15.3303 38.2498M23.4569 44.6381C23.4569 44.6381 18.5039 40.7446 15.3303 38.2498M15.3303 38.2498C11.4119 32.3734 3.86543 28.2282 3.86543 28.2282M18.612 9.38477L21.5235 12.3848M25.0235 8.38477L25.5173 9.88477" stroke="#1D1D38" stroke-width="3" stroke-linecap="round" stroke-linejoin="round"/>
</g>
</svg>
