<svg width="21" height="21" viewBox="0 0 21 21" fill="none" xmlns="http://www.w3.org/2000/svg">
<g clip-path="url(#clip0)">
<path d="M17.9308 17.9324H2.56091C2.33445 17.9324 2.11726 17.8424 1.95713 17.6823C1.79699 17.5222 1.70703 17.305 1.70703 17.0785V10.6633C1.70702 10.5413 1.73315 10.4207 1.78367 10.3096C1.8342 10.1986 1.90793 10.0996 1.99991 10.0195L5.12256 7.29642V3.41638C5.12256 3.18992 5.21252 2.97273 5.37266 2.8126C5.53279 2.65246 5.74998 2.5625 5.97644 2.5625H17.9308C18.1573 2.5625 18.3744 2.65246 18.5346 2.8126C18.6947 2.97273 18.7847 3.18992 18.7847 3.41638V17.0785C18.7847 17.305 18.6947 17.5222 18.5346 17.6823C18.3744 17.8424 18.1573 17.9324 17.9308 17.9324ZM7.68421 16.2246H10.2459V11.0518L6.83032 8.07346L3.4148 11.0518V16.2246H5.97644V12.8091H7.68421V16.2246ZM11.9536 16.2246H17.0769V4.27026H6.83032V6.08647C7.03013 6.08647 7.23079 6.15649 7.39132 6.29738L11.6607 10.0195C11.7527 10.0996 11.8265 10.1986 11.877 10.3096C11.9275 10.4207 11.9536 10.5413 11.9536 10.6633V16.2246ZM13.6614 9.39356H15.3691V11.1013H13.6614V9.39356ZM13.6614 12.8091H15.3691V14.5169H13.6614V12.8091ZM13.6614 5.97803H15.3691V7.68579H13.6614V5.97803ZM10.2459 5.97803H11.9536V7.68579H10.2459V5.97803Z" fill="#09121F"/>
</g>
<defs>
<clipPath id="clip0">
<rect width="20.4932" height="20.4932" fill="white"/>
</clipPath>
</defs>
</svg>
