<svg width="22" height="22" viewBox="0 0 22 22" fill="none" xmlns="http://www.w3.org/2000/svg">
<path fill-rule="evenodd" clip-rule="evenodd" d="M20 10.6C20 5.40852 15.7915 1.2 10.6 1.2C5.40852 1.2 1.2 5.40852 1.2 10.6C1.2 15.7915 5.40852 20 10.6 20C12.1226 20 13.559 19.6385 14.8296 18.9971C15.1255 18.8478 15.4863 18.9665 15.6356 19.2623C15.785 19.5582 15.6662 19.919 15.3704 20.0683C13.9358 20.7924 12.3147 21.2 10.6 21.2C4.74578 21.2 0 16.4542 0 10.6C0 4.74578 4.74578 0 10.6 0C16.4542 0 21.2 4.74578 21.2 10.6C21.2 12.3147 20.7924 13.9358 20.0683 15.3704C19.919 15.6662 19.5582 15.785 19.2623 15.6356C18.9665 15.4863 18.8478 15.1255 18.9971 14.8296C19.6385 13.559 20 12.1226 20 10.6ZM17.2666 18.2666C16.5302 18.2666 15.9332 17.6697 15.9332 16.9333C15.9332 16.1969 16.5302 15.6 17.2666 15.6C18.003 15.6 18.5999 16.1969 18.5999 16.9333C18.5999 17.6697 18.003 18.2666 17.2666 18.2666ZM9.99995 12.6C9.66858 12.6 9.39995 12.3313 9.39995 12V4.19998C9.39995 3.8686 9.66858 3.59998 9.99995 3.59998C10.3313 3.59998 10.6 3.8686 10.6 4.19998V11.4H14C14.3313 11.4 14.6 11.6686 14.6 12C14.6 12.3313 14.3313 12.6 14 12.6H10.2C10.1659 12.6 10.1325 12.5971 10.1 12.5917C10.0674 12.5971 10.034 12.6 9.99995 12.6Z" fill="#E47F10"/>
</svg>
