<svg width="68" height="68" viewBox="0 0 68 68" fill="none" xmlns="http://www.w3.org/2000/svg">
<path fill-rule="evenodd" clip-rule="evenodd" d="M38.7683 27.4466C37.8849 24.8386 35.0546 23.4406 32.4466 24.324C29.8386 25.2074 28.4406 28.0377 29.324 30.6457C29.5949 31.4456 29.1661 32.3136 28.3663 32.5846C27.5664 32.8555 26.6984 32.4267 26.4274 31.6269C25.0021 27.4192 27.2577 22.8527 31.4654 21.4274C35.6731 20.0021 40.2396 22.2577 41.6649 26.4654C43.0902 30.6731 40.8346 35.2396 36.6269 36.6649C35.827 36.9358 34.959 36.5071 34.688 35.7072C34.4171 34.9073 34.8459 34.0393 35.6457 33.7683C38.2537 32.8849 39.6517 30.0546 38.7683 27.4466Z" fill="#1D1D38"/>
<path fill-rule="evenodd" clip-rule="evenodd" d="M35.4895 34.3108C36.1795 33.8237 37.1336 33.9882 37.6206 34.6782L41.8813 40.7141C43.1523 42.5148 41.8645 45 39.6605 45H29.138C26.8333 45 25.5743 42.312 27.0497 40.5415L27.7511 39.6999C28.2917 39.0511 29.2559 38.9635 29.9047 39.5041C30.5535 40.0448 30.6411 41.009 30.1005 41.6577L29.8638 41.9418H39.0044L35.1221 36.4418C34.6351 35.7519 34.7996 34.7978 35.4895 34.3108Z" fill="#1D1D38"/>
<path d="M31.902 35.8253C31.902 36.6698 31.2174 37.3544 30.3729 37.3544C29.5284 37.3544 28.8438 36.6698 28.8438 35.8253C28.8438 34.9808 29.5284 34.2962 30.3729 34.2962C31.2174 34.2962 31.902 34.9808 31.902 35.8253Z" fill="#1D1D38"/>
<path d="M46.288 55.3653C34.4241 62.215 19.2538 58.1501 12.4042 46.2862C5.55458 34.4223 9.61945 19.252 21.4833 12.4023C33.3473 5.55272 48.5176 9.61759 55.3672 21.4815" stroke="url(#paint0_linear)" stroke-width="3.90625" stroke-linecap="round" stroke-linejoin="round"/>
<path d="M51.3783 43.9888C45.7988 53.6528 33.4414 56.964 23.7774 51.3844C14.1133 45.8049 10.8022 33.4475 16.3817 23.7835C21.9613 14.1194 34.3186 10.8083 43.9827 16.3878" stroke="url(#paint1_linear)" stroke-width="0.78125" stroke-linecap="round" stroke-linejoin="round"/>
<circle cx="50.9153" cy="44.5295" r="6.2612" transform="rotate(60 50.9153 44.5295)" fill="url(#paint2_linear)"/>
<circle cx="46.3304" cy="18.1683" r="0.858086" transform="rotate(60 46.3304 18.1683)" fill="url(#paint3_linear)"/>
<defs>
<linearGradient id="paint0_linear" x1="46.288" y1="55.3653" x2="21.4834" y2="12.4023" gradientUnits="userSpaceOnUse">
<stop stop-color="#91E8B3"/>
<stop offset="1" stop-color="#C0E57B"/>
<stop offset="1" stop-color="#C0E57B"/>
</linearGradient>
<linearGradient id="paint1_linear" x1="51.3783" y1="43.9888" x2="16.3817" y2="23.7835" gradientUnits="userSpaceOnUse">
<stop stop-color="#91E8B3"/>
<stop offset="1" stop-color="#C0E57B"/>
<stop offset="1" stop-color="#C0E57B"/>
</linearGradient>
<linearGradient id="paint2_linear" x1="57.1765" y1="44.5295" x2="44.6541" y2="44.5295" gradientUnits="userSpaceOnUse">
<stop stop-color="#91E8B3"/>
<stop offset="1" stop-color="#C0E57B"/>
<stop offset="1" stop-color="#C0E57B"/>
</linearGradient>
<linearGradient id="paint3_linear" x1="47.1885" y1="18.1683" x2="45.4724" y2="18.1683" gradientUnits="userSpaceOnUse">
<stop stop-color="#91E8B3"/>
<stop offset="1" stop-color="#C0E57B"/>
<stop offset="1" stop-color="#C0E57B"/>
</linearGradient>
</defs>
</svg>
