<svg width="35" height="35" viewBox="0 0 35 35" fill="none" xmlns="http://www.w3.org/2000/svg">
<g id="x">
<path id="Vector" fill-rule="evenodd" clip-rule="evenodd" d="M22.1414 5.08524C19.4645 3.89248 16.4737 3.59699 13.6152 4.24285C10.7566 4.8887 8.18342 6.44129 6.27934 8.66906C4.37526 10.8968 3.24232 13.6804 3.0495 16.6047C2.85667 19.5289 3.61429 22.4372 5.20936 24.8957C6.80443 27.3542 9.15148 29.2312 11.9005 30.2468C14.6495 31.2624 17.6531 31.3622 20.4635 30.5313C23.2738 29.7004 25.7403 27.9832 27.495 25.636C29.2497 23.2888 30.1987 20.4372 30.2004 17.5066V16.1183C30.2004 15.2843 30.8764 14.6083 31.7104 14.6083C32.5443 14.6083 33.2204 15.2843 33.2204 16.1183V17.5075C33.2183 21.0894 32.0585 24.5755 29.9138 27.4443C27.7692 30.3131 24.7546 32.4118 21.3198 33.4274C17.8849 34.443 14.2138 34.321 10.8539 33.0797C7.49399 31.8384 4.62536 29.5443 2.67584 26.5394C0.726308 23.5346 -0.199669 19.9801 0.0360056 16.406C0.27168 12.8319 1.65638 9.42971 3.98359 6.70688C6.3108 3.98405 9.45583 2.08644 12.9496 1.29707C16.4434 0.50769 20.0988 0.86884 23.3706 2.32666C24.1323 2.66608 24.4747 3.55876 24.1353 4.32052C23.7958 5.08229 22.9032 5.42466 22.1414 5.08524Z" fill="#1D1D38"/>
<path id="Vector_2" fill-rule="evenodd" clip-rule="evenodd" d="M25.6259 8.92671C26.2156 9.51641 26.2156 10.4725 25.6259 11.0622L19.2195 17.4687L25.6259 23.8751C26.2156 24.4648 26.2156 25.4209 25.6259 26.0106C25.0362 26.6003 24.0801 26.6003 23.4904 26.0106L17.084 19.6041L10.6775 26.0106C10.0878 26.6003 9.13173 26.6003 8.54204 26.0106C7.95234 25.4209 7.95234 24.4648 8.54204 23.8751L14.9485 17.4687L8.54204 11.0622C7.95234 10.4725 7.95234 9.51641 8.54204 8.92671C9.13173 8.33702 10.0878 8.33702 10.6775 8.92671L17.084 15.3332L23.4904 8.92671C24.0801 8.33702 25.0362 8.33702 25.6259 8.92671Z" fill="#1D1D38"/>
</g>
</svg>
